<svg xmlns="http://www.w3.org/2000/svg" xmlns:xlink="http://www.w3.org/1999/xlink" width="500" zoomAndPan="magnify" viewBox="0 0 375 374.999991" height="500" preserveAspectRatio="xMidYMid meet" version="1.0"><path fill="#16181a" d="M 325.589844 143.699219 C 325.589844 144.046875 325.3125 144.324219 324.964844 144.324219 C 324.621094 144.324219 324.339844 144.046875 324.339844 143.699219 C 324.339844 143.355469 324.621094 143.074219 324.964844 143.074219 C 325.3125 143.074219 325.589844 143.355469 325.589844 143.699219 " fill-opacity="1" fill-rule="nonzero"/><path fill="#16181a" d="M 170.574219 45.886719 C 170.574219 46.234375 170.296875 46.511719 169.949219 46.511719 C 169.605469 46.511719 169.324219 46.234375 169.324219 45.886719 C 169.324219 45.542969 169.605469 45.261719 169.949219 45.261719 C 170.296875 45.261719 170.574219 45.542969 170.574219 45.886719 " fill-opacity="1" fill-rule="nonzero"/><path fill="#16181a" d="M 84.769531 205.652344 C 84.769531 205.996094 85.050781 206.277344 85.394531 206.277344 C 85.742188 206.277344 86.019531 205.996094 86.019531 205.652344 C 86.019531 205.304688 85.742188 205.027344 85.394531 205.027344 C 85.050781 205.027344 84.769531 205.304688 84.769531 205.652344 " fill-opacity="1" fill-rule="nonzero"/><path fill="#16181a" d="M 202.078125 350.074219 C 202.078125 350.421875 201.796875 350.699219 201.453125 350.699219 C 201.105469 350.699219 200.828125 350.421875 200.828125 350.074219 C 200.828125 349.730469 201.105469 349.449219 201.453125 349.449219 C 201.796875 349.449219 202.078125 349.730469 202.078125 350.074219 " fill-opacity="1" fill-rule="nonzero"/><path fill="#16181a" d="M 141.085938 5.023438 C 141.085938 5.367188 141.367188 5.648438 141.710938 5.648438 C 142.058594 5.648438 142.335938 5.367188 142.335938 5.023438 C 142.335938 4.675781 142.058594 4.398438 141.710938 4.398438 C 141.367188 4.398438 141.085938 4.675781 141.085938 5.023438 " fill-opacity="1" fill-rule="nonzero"/><path fill="#16181a" d="M 193.441406 373.132812 C 193.441406 373.617188 193.835938 374.007812 194.316406 374.007812 C 194.800781 374.007812 195.191406 373.617188 195.191406 373.132812 C 195.191406 372.644531 194.800781 372.253906 194.316406 372.253906 C 193.835938 372.253906 193.441406 372.644531 193.441406 373.132812 " fill-opacity="1" fill-rule="nonzero"/><path fill="#16181a" d="M 345.6875 146.855469 C 345.6875 147.339844 346.078125 147.730469 346.5625 147.730469 C 347.046875 147.730469 347.4375 147.339844 347.4375 146.855469 C 347.4375 146.371094 347.046875 145.980469 346.5625 145.980469 C 346.078125 145.980469 345.6875 146.371094 345.6875 146.855469 " fill-opacity="1" fill-rule="nonzero"/><path fill="#16181a" d="M 122.976562 38.640625 C 122.976562 39.398438 122.359375 40.015625 121.601562 40.015625 C 120.84375 40.015625 120.226562 39.398438 120.226562 38.640625 C 120.226562 37.878906 120.84375 37.265625 121.601562 37.265625 C 122.359375 37.265625 122.976562 37.878906 122.976562 38.640625 " fill-opacity="1" fill-rule="nonzero"/><path fill="#16181a" d="M 303.574219 146.441406 C 303.574219 146.785156 303.292969 147.066406 302.949219 147.066406 C 302.605469 147.066406 302.324219 146.785156 302.324219 146.441406 C 302.324219 146.097656 302.605469 145.816406 302.949219 145.816406 C 303.292969 145.816406 303.574219 146.097656 303.574219 146.441406 " fill-opacity="1" fill-rule="nonzero"/><path fill="#16181a" d="M 113.773438 240.128906 C 113.773438 240.472656 114.054688 240.753906 114.398438 240.753906 C 114.746094 240.753906 115.023438 240.472656 115.023438 240.128906 C 115.023438 239.78125 114.746094 239.503906 114.398438 239.503906 C 114.054688 239.503906 113.773438 239.78125 113.773438 240.128906 " fill-opacity="1" fill-rule="nonzero"/><path fill="#16181a" d="M 238.320312 63.511719 C 238.320312 63.855469 238.601562 64.136719 238.945312 64.136719 C 239.289062 64.136719 239.570312 63.855469 239.570312 63.511719 C 239.570312 63.167969 239.289062 62.886719 238.945312 62.886719 C 238.601562 62.886719 238.320312 63.167969 238.320312 63.511719 " fill-opacity="1" fill-rule="nonzero"/><path fill="#16181a" d="M 79.589844 136.652344 C 79.589844 137 79.308594 137.277344 78.964844 137.277344 C 78.617188 137.277344 78.339844 137 78.339844 136.652344 C 78.339844 136.308594 78.617188 136.027344 78.964844 136.027344 C 79.308594 136.027344 79.589844 136.308594 79.589844 136.652344 " fill-opacity="1" fill-rule="nonzero"/><path fill="#16181a" d="M 60.671875 122.066406 C 60.671875 122.550781 61.066406 122.941406 61.550781 122.941406 C 62.03125 122.941406 62.425781 122.550781 62.425781 122.066406 C 62.425781 121.585938 62.03125 121.191406 61.550781 121.191406 C 61.066406 121.191406 60.671875 121.585938 60.671875 122.066406 " fill-opacity="1" fill-rule="nonzero"/><path fill="#16181a" d="M 199.304688 214.054688 C 199.304688 214.402344 199.027344 214.679688 198.679688 214.679688 C 198.335938 214.679688 198.054688 214.402344 198.054688 214.054688 C 198.054688 213.710938 198.335938 213.429688 198.679688 213.429688 C 199.027344 213.429688 199.304688 213.710938 199.304688 214.054688 " fill-opacity="1" fill-rule="nonzero"/><path fill="#16181a" d="M 209.257812 239.730469 C 209.257812 240.074219 209.539062 240.355469 209.882812 240.355469 C 210.226562 240.355469 210.507812 240.074219 210.507812 239.730469 C 210.507812 239.382812 210.226562 239.105469 209.882812 239.105469 C 209.539062 239.105469 209.257812 239.382812 209.257812 239.730469 " fill-opacity="1" fill-rule="nonzero"/><path fill="#16181a" d="M 1.328125 267.226562 C 1.328125 267.710938 1.722656 268.101562 2.203125 268.101562 C 2.6875 268.101562 3.078125 267.710938 3.078125 267.226562 C 3.078125 266.742188 2.6875 266.351562 2.203125 266.351562 C 1.722656 266.351562 1.328125 266.742188 1.328125 267.226562 " fill-opacity="1" fill-rule="nonzero"/><path fill="#16181a" d="M 310.910156 295.082031 C 310.910156 295.425781 311.1875 295.707031 311.535156 295.707031 C 311.878906 295.707031 312.160156 295.425781 312.160156 295.082031 C 312.160156 294.734375 311.878906 294.457031 311.535156 294.457031 C 311.1875 294.457031 310.910156 294.734375 310.910156 295.082031 " fill-opacity="1" fill-rule="nonzero"/><path fill="#16181a" d="M 62.03125 367.800781 C 62.03125 368.152344 61.75 368.425781 61.40625 368.425781 C 61.0625 368.425781 60.78125 368.152344 60.78125 367.800781 C 60.78125 367.460938 61.0625 367.175781 61.40625 367.175781 C 61.75 367.175781 62.03125 367.460938 62.03125 367.800781 " fill-opacity="1" fill-rule="nonzero"/><path fill="#16181a" d="M 65.226562 334.605469 C 65.226562 334.953125 65.507812 335.230469 65.851562 335.230469 C 66.195312 335.230469 66.476562 334.953125 66.476562 334.605469 C 66.476562 334.261719 66.195312 333.980469 65.851562 333.980469 C 65.507812 333.980469 65.226562 334.261719 65.226562 334.605469 " fill-opacity="1" fill-rule="nonzero"/><path fill="#16181a" d="M 116.777344 314.972656 C 116.777344 315.453125 116.386719 315.847656 115.902344 315.847656 C 115.421875 315.847656 115.027344 315.453125 115.027344 314.972656 C 115.027344 314.488281 115.421875 314.097656 115.902344 314.097656 C 116.386719 314.097656 116.777344 314.488281 116.777344 314.972656 " fill-opacity="1" fill-rule="nonzero"/><path fill="#16181a" d="M 158 71.101562 C 158 71.449219 157.722656 71.726562 157.375 71.726562 C 157.03125 71.726562 156.75 71.449219 156.75 71.101562 C 156.75 70.757812 157.03125 70.476562 157.375 70.476562 C 157.722656 70.476562 158 70.757812 158 71.101562 " fill-opacity="1" fill-rule="nonzero"/><path fill="#16181a" d="M 5.542969 170.859375 C 5.542969 171.203125 5.820312 171.484375 6.167969 171.484375 C 6.511719 171.484375 6.792969 171.203125 6.792969 170.859375 C 6.792969 170.515625 6.511719 170.234375 6.167969 170.234375 C 5.820312 170.234375 5.542969 170.515625 5.542969 170.859375 " fill-opacity="1" fill-rule="nonzero"/><path fill="#16181a" d="M 65.96875 193.480469 C 65.96875 193.828125 66.25 194.105469 66.59375 194.105469 C 66.941406 194.105469 67.21875 193.828125 67.21875 193.480469 C 67.21875 193.136719 66.941406 192.855469 66.59375 192.855469 C 66.25 192.855469 65.96875 193.136719 65.96875 193.480469 " fill-opacity="1" fill-rule="nonzero"/><path fill="#16181a" d="M 64.394531 168.835938 C 64.394531 169.457031 63.890625 169.960938 63.269531 169.960938 C 62.648438 169.960938 62.144531 169.457031 62.144531 168.835938 C 62.144531 168.210938 62.648438 167.710938 63.269531 167.710938 C 63.890625 167.710938 64.394531 168.210938 64.394531 168.835938 " fill-opacity="1" fill-rule="nonzero"/><path fill="#16181a" d="M 106.21875 268.679688 C 106.21875 269.300781 106.722656 269.804688 107.34375 269.804688 C 107.964844 269.804688 108.46875 269.300781 108.46875 268.679688 C 108.46875 268.058594 107.964844 267.554688 107.34375 267.554688 C 106.722656 267.554688 106.21875 268.058594 106.21875 268.679688 " fill-opacity="1" fill-rule="nonzero"/><path fill="#16181a" d="M 368.277344 200.828125 C 368.277344 201.3125 368.667969 201.703125 369.152344 201.703125 C 369.632812 201.703125 370.027344 201.3125 370.027344 200.828125 C 370.027344 200.347656 369.632812 199.953125 369.152344 199.953125 C 368.667969 199.953125 368.277344 200.347656 368.277344 200.828125 " fill-opacity="1" fill-rule="nonzero"/><path fill="#16181a" d="M 37.585938 216.113281 C 37.585938 216.734375 38.089844 217.238281 38.710938 217.238281 C 39.332031 217.238281 39.835938 216.734375 39.835938 216.113281 C 39.835938 215.492188 39.332031 214.988281 38.710938 214.988281 C 38.089844 214.988281 37.585938 215.492188 37.585938 216.113281 " fill-opacity="1" fill-rule="nonzero"/><path fill="#16181a" d="M 368.800781 224.183594 C 368.800781 224.527344 368.523438 224.808594 368.175781 224.808594 C 367.832031 224.808594 367.550781 224.527344 367.550781 224.183594 C 367.550781 223.839844 367.832031 223.558594 368.175781 223.558594 C 368.523438 223.558594 368.800781 223.839844 368.800781 224.183594 " fill-opacity="1" fill-rule="nonzero"/><path fill="#16181a" d="M 349.71875 256.980469 C 349.71875 257.464844 350.109375 257.855469 350.59375 257.855469 C 351.078125 257.855469 351.46875 257.464844 351.46875 256.980469 C 351.46875 256.496094 351.078125 256.105469 350.59375 256.105469 C 350.109375 256.105469 349.71875 256.496094 349.71875 256.980469 " fill-opacity="1" fill-rule="nonzero"/><path fill="#16181a" d="M 280.238281 240.890625 C 280.238281 241.515625 280.742188 242.019531 281.363281 242.019531 C 281.984375 242.019531 282.488281 241.515625 282.488281 240.890625 C 282.488281 240.269531 281.984375 239.769531 281.363281 239.769531 C 280.742188 239.769531 280.238281 240.269531 280.238281 240.890625 " fill-opacity="1" fill-rule="nonzero"/><path fill="#16181a" d="M 191.9375 154.675781 C 191.9375 155.160156 191.546875 155.550781 191.0625 155.550781 C 190.582031 155.550781 190.1875 155.160156 190.1875 154.675781 C 190.1875 154.191406 190.582031 153.800781 191.0625 153.800781 C 191.546875 153.800781 191.9375 154.191406 191.9375 154.675781 " fill-opacity="1" fill-rule="nonzero"/><path fill="#16181a" d="M 262.355469 218.210938 C 262.355469 218.972656 262.972656 219.585938 263.730469 219.585938 C 264.492188 219.585938 265.105469 218.972656 265.105469 218.210938 C 265.105469 217.453125 264.492188 216.839844 263.730469 216.839844 C 262.972656 216.839844 262.355469 217.453125 262.355469 218.210938 " fill-opacity="1" fill-rule="nonzero"/><path fill="#16181a" d="M 351.675781 116.769531 C 351.675781 117.390625 351.171875 117.894531 350.550781 117.894531 C 349.929688 117.894531 349.425781 117.390625 349.425781 116.769531 C 349.425781 116.148438 349.929688 115.644531 350.550781 115.644531 C 351.171875 115.644531 351.675781 116.148438 351.675781 116.769531 " fill-opacity="1" fill-rule="nonzero"/><path fill="#16181a" d="M 371.394531 106.117188 C 371.394531 106.601562 371.785156 106.992188 372.273438 106.992188 C 372.753906 106.992188 373.148438 106.601562 373.148438 106.117188 C 373.148438 105.632812 372.753906 105.242188 372.273438 105.242188 C 371.785156 105.242188 371.394531 105.632812 371.394531 106.117188 " fill-opacity="1" fill-rule="nonzero"/><path fill="#16181a" d="M 210.820312 330.777344 C 210.820312 331.121094 211.101562 331.402344 211.445312 331.402344 C 211.789062 331.402344 212.070312 331.121094 212.070312 330.777344 C 212.070312 330.429688 211.789062 330.152344 211.445312 330.152344 C 211.101562 330.152344 210.820312 330.429688 210.820312 330.777344 " fill-opacity="1" fill-rule="nonzero"/><path fill="#16181a" d="M 227.539062 311.023438 C 227.539062 311.921875 226.8125 312.644531 225.914062 312.644531 C 225.015625 312.644531 224.289062 311.921875 224.289062 311.023438 C 224.289062 310.125 225.015625 309.398438 225.914062 309.398438 C 226.8125 309.398438 227.539062 310.125 227.539062 311.023438 " fill-opacity="1" fill-rule="nonzero"/><path fill="#16181a" d="M 270.414062 265.046875 C 270.414062 265.390625 270.132812 265.671875 269.789062 265.671875 C 269.441406 265.671875 269.164062 265.390625 269.164062 265.046875 C 269.164062 264.699219 269.441406 264.421875 269.789062 264.421875 C 270.132812 264.421875 270.414062 264.699219 270.414062 265.046875 " fill-opacity="1" fill-rule="nonzero"/><path fill="#16181a" d="M 253.738281 302.398438 C 253.738281 302.742188 254.015625 303.023438 254.363281 303.023438 C 254.707031 303.023438 254.988281 302.742188 254.988281 302.398438 C 254.988281 302.054688 254.707031 301.773438 254.363281 301.773438 C 254.015625 301.773438 253.738281 302.054688 253.738281 302.398438 " fill-opacity="1" fill-rule="nonzero"/><path fill="#16181a" d="M 146.8125 142.589844 C 146.8125 142.933594 147.089844 143.214844 147.4375 143.214844 C 147.78125 143.214844 148.0625 142.933594 148.0625 142.589844 C 148.0625 142.246094 147.78125 141.964844 147.4375 141.964844 C 147.089844 141.964844 146.8125 142.246094 146.8125 142.589844 " fill-opacity="1" fill-rule="nonzero"/><path fill="#16181a" d="M 117.488281 110.6875 C 117.488281 111.035156 117.769531 111.3125 118.113281 111.3125 C 118.460938 111.3125 118.738281 111.035156 118.738281 110.6875 C 118.738281 110.34375 118.460938 110.0625 118.113281 110.0625 C 117.769531 110.0625 117.488281 110.34375 117.488281 110.6875 " fill-opacity="1" fill-rule="nonzero"/><path fill="#16181a" d="M 359.675781 36.851562 C 359.675781 37.609375 360.292969 38.226562 361.054688 38.226562 C 361.8125 38.226562 362.429688 37.609375 362.429688 36.851562 C 362.429688 36.089844 361.8125 35.476562 361.054688 35.476562 C 360.292969 35.476562 359.675781 36.089844 359.675781 36.851562 " fill-opacity="1" fill-rule="nonzero"/><path fill="#16181a" d="M 166.101562 113.855469 C 166.101562 114.203125 166.378906 114.480469 166.726562 114.480469 C 167.070312 114.480469 167.351562 114.203125 167.351562 113.855469 C 167.351562 113.511719 167.070312 113.230469 166.726562 113.230469 C 166.378906 113.230469 166.101562 113.511719 166.101562 113.855469 " fill-opacity="1" fill-rule="nonzero"/><path fill="#16181a" d="M 153.347656 280.609375 C 153.347656 280.953125 153.625 281.234375 153.972656 281.234375 C 154.316406 281.234375 154.597656 280.953125 154.597656 280.609375 C 154.597656 280.261719 154.316406 279.984375 153.972656 279.984375 C 153.625 279.984375 153.347656 280.261719 153.347656 280.609375 " fill-opacity="1" fill-rule="nonzero"/><path fill="#16181a" d="M 284.773438 79.453125 C 284.773438 79.796875 284.496094 80.078125 284.148438 80.078125 C 283.804688 80.078125 283.523438 79.796875 283.523438 79.453125 C 283.523438 79.105469 283.804688 78.828125 284.148438 78.828125 C 284.496094 78.828125 284.773438 79.105469 284.773438 79.453125 " fill-opacity="1" fill-rule="nonzero"/><path fill="#16181a" d="M 309.132812 93.988281 C 309.132812 94.886719 309.859375 95.613281 310.757812 95.613281 C 311.65625 95.613281 312.382812 94.886719 312.382812 93.988281 C 312.382812 93.089844 311.65625 92.363281 310.757812 92.363281 C 309.859375 92.363281 309.132812 93.089844 309.132812 93.988281 " fill-opacity="1" fill-rule="nonzero"/><path fill="#16181a" d="M 276.628906 121.472656 C 276.628906 122.09375 277.128906 122.59375 277.753906 122.59375 C 278.375 122.59375 278.875 122.09375 278.875 121.472656 C 278.875 120.847656 278.375 120.34375 277.753906 120.34375 C 277.128906 120.34375 276.628906 120.847656 276.628906 121.472656 " fill-opacity="1" fill-rule="nonzero"/><path fill="#16181a" d="M 189.492188 250.042969 C 189.492188 250.390625 189.773438 250.667969 190.117188 250.667969 C 190.460938 250.667969 190.742188 250.390625 190.742188 250.042969 C 190.742188 249.699219 190.460938 249.417969 190.117188 249.417969 C 189.773438 249.417969 189.492188 249.699219 189.492188 250.042969 " fill-opacity="1" fill-rule="nonzero"/><path fill="#16181a" d="M 74.371094 235.039062 C 74.371094 235.382812 74.089844 235.664062 73.746094 235.664062 C 73.398438 235.664062 73.121094 235.382812 73.121094 235.039062 C 73.121094 234.695312 73.398438 234.414062 73.746094 234.414062 C 74.089844 234.414062 74.371094 234.695312 74.371094 235.039062 " fill-opacity="1" fill-rule="nonzero"/><path fill="#16181a" d="M 231.671875 39.636719 C 231.671875 40.398438 232.285156 41.011719 233.046875 41.011719 C 233.804688 41.011719 234.421875 40.398438 234.421875 39.636719 C 234.421875 38.878906 233.804688 38.261719 233.046875 38.261719 C 232.285156 38.261719 231.671875 38.878906 231.671875 39.636719 " fill-opacity="1" fill-rule="nonzero"/><path fill="#16181a" d="M 4.625 32.480469 C 4.625 32.960938 4.234375 33.355469 3.75 33.355469 C 3.265625 33.355469 2.875 32.960938 2.875 32.480469 C 2.875 31.996094 3.265625 31.605469 3.75 31.605469 C 4.234375 31.605469 4.625 31.996094 4.625 32.480469 " fill-opacity="1" fill-rule="nonzero"/><path fill="#16181a" d="M 313.320312 172.257812 C 313.320312 172.605469 313.597656 172.882812 313.945312 172.882812 C 314.285156 172.882812 314.570312 172.605469 314.570312 172.257812 C 314.570312 171.914062 314.285156 171.632812 313.945312 171.632812 C 313.597656 171.632812 313.320312 171.914062 313.320312 172.257812 " fill-opacity="1" fill-rule="nonzero"/><path fill="#16181a" d="M 78.027344 30.050781 C 78.027344 30.394531 77.75 30.675781 77.402344 30.675781 C 77.058594 30.675781 76.777344 30.394531 76.777344 30.050781 C 76.777344 29.707031 77.058594 29.425781 77.402344 29.425781 C 77.75 29.425781 78.027344 29.707031 78.027344 30.050781 " fill-opacity="1" fill-rule="nonzero"/><path fill="#16181a" d="M 68.035156 57.722656 C 68.035156 58.339844 68.539062 58.847656 69.160156 58.847656 C 69.78125 58.847656 70.285156 58.339844 70.285156 57.722656 C 70.285156 57.097656 69.78125 56.597656 69.160156 56.597656 C 68.539062 56.597656 68.035156 57.097656 68.035156 57.722656 " fill-opacity="1" fill-rule="nonzero"/><path fill="#16181a" d="M 44.050781 60.945312 C 44.050781 61.839844 44.777344 62.566406 45.671875 62.566406 C 46.570312 62.566406 47.296875 61.839844 47.296875 60.945312 C 47.296875 60.042969 46.570312 59.320312 45.671875 59.320312 C 44.777344 59.320312 44.050781 60.042969 44.050781 60.945312 " fill-opacity="1" fill-rule="nonzero"/><path fill="#16181a" d="M 129.101562 180.082031 C 129.101562 180.425781 128.824219 180.707031 128.476562 180.707031 C 128.132812 180.707031 127.851562 180.425781 127.851562 180.082031 C 127.851562 179.734375 128.132812 179.457031 128.476562 179.457031 C 128.824219 179.457031 129.101562 179.734375 129.101562 180.082031 " fill-opacity="1" fill-rule="nonzero"/><path fill="#16181a" d="M 169.503906 181.769531 C 169.503906 182.253906 169.109375 182.644531 168.628906 182.644531 C 168.144531 182.644531 167.753906 182.253906 167.753906 181.769531 C 167.753906 181.289062 168.144531 180.894531 168.628906 180.894531 C 169.109375 180.894531 169.503906 181.289062 169.503906 181.769531 " fill-opacity="1" fill-rule="nonzero"/><path fill="#16181a" d="M 41.75 187.8125 C 41.75 188.570312 42.367188 189.1875 43.125 189.1875 C 43.882812 189.1875 44.5 188.570312 44.5 187.8125 C 44.5 187.054688 43.882812 186.4375 43.125 186.4375 C 42.367188 186.4375 41.75 187.054688 41.75 187.8125 " fill-opacity="1" fill-rule="nonzero"/><path fill="#16181a" d="M 77 2.8125 C 77 3.570312 76.382812 4.1875 75.625 4.1875 C 74.867188 4.1875 74.25 3.570312 74.25 2.8125 C 74.25 2.054688 74.867188 1.4375 75.625 1.4375 C 76.382812 1.4375 77 2.054688 77 2.8125 " fill-opacity="1" fill-rule="nonzero"/><path fill="#16181a" d="M 178.8125 205.3125 C 178.8125 206.210938 178.085938 206.9375 177.1875 206.9375 C 176.289062 206.9375 175.5625 206.210938 175.5625 205.3125 C 175.5625 204.414062 176.289062 203.6875 177.1875 203.6875 C 178.085938 203.6875 178.8125 204.414062 178.8125 205.3125 " fill-opacity="1" fill-rule="nonzero"/><path fill="#16181a" d="M 268 181.25 C 268 182.007812 268.617188 182.625 269.375 182.625 C 270.132812 182.625 270.75 182.007812 270.75 181.25 C 270.75 180.492188 270.132812 179.875 269.375 179.875 C 268.617188 179.875 268 180.492188 268 181.25 " fill-opacity="1" fill-rule="nonzero"/><path fill="#16181a" d="M 195.5 114.6875 C 195.5 115.308594 194.996094 115.8125 194.375 115.8125 C 193.753906 115.8125 193.25 115.308594 193.25 114.6875 C 193.25 114.066406 193.753906 113.5625 194.375 113.5625 C 194.996094 113.5625 195.5 114.066406 195.5 114.6875 " fill-opacity="1" fill-rule="nonzero"/><path fill="#16181a" d="M 52.1875 260.625 C 52.1875 260.96875 52.46875 261.25 52.8125 261.25 C 53.15625 261.25 53.4375 260.96875 53.4375 260.625 C 53.4375 260.28125 53.15625 260 52.8125 260 C 52.46875 260 52.1875 260.28125 52.1875 260.625 " fill-opacity="1" fill-rule="nonzero"/><path fill="#16181a" d="M 39.375 353.125 C 39.375 353.46875 39.09375 353.75 38.75 353.75 C 38.40625 353.75 38.125 353.46875 38.125 353.125 C 38.125 352.78125 38.40625 352.5 38.75 352.5 C 39.09375 352.5 39.375 352.78125 39.375 353.125 " fill-opacity="1" fill-rule="nonzero"/><path fill="#16181a" d="M 231.5625 289.375 C 231.5625 289.71875 231.28125 290 230.9375 290 C 230.59375 290 230.3125 289.71875 230.3125 289.375 C 230.3125 289.03125 230.59375 288.75 230.9375 288.75 C 231.28125 288.75 231.5625 289.03125 231.5625 289.375 " fill-opacity="1" fill-rule="nonzero"/><path fill="#16181a" d="M 146.0625 165.3125 C 146.0625 165.933594 146.566406 166.4375 147.1875 166.4375 C 147.808594 166.4375 148.3125 165.933594 148.3125 165.3125 C 148.3125 164.691406 147.808594 164.1875 147.1875 164.1875 C 146.566406 164.1875 146.0625 164.691406 146.0625 165.3125 " fill-opacity="1" fill-rule="nonzero"/><path fill="#16181a" d="M 292.5 267.8125 C 292.5 268.15625 292.78125 268.4375 293.125 268.4375 C 293.46875 268.4375 293.75 268.15625 293.75 267.8125 C 293.75 267.46875 293.46875 267.1875 293.125 267.1875 C 292.78125 267.1875 292.5 267.46875 292.5 267.8125 " fill-opacity="1" fill-rule="nonzero"/><path fill="#16181a" d="M 24.9375 23.75 C 24.9375 24.648438 25.664062 25.375 26.5625 25.375 C 27.460938 25.375 28.1875 24.648438 28.1875 23.75 C 28.1875 22.851562 27.460938 22.125 26.5625 22.125 C 25.664062 22.125 24.9375 22.851562 24.9375 23.75 " fill-opacity="1" fill-rule="nonzero"/><path fill="#16181a" d="M 166.625 2.5 C 166.625 3.398438 165.898438 4.125 165 4.125 C 164.101562 4.125 163.375 3.398438 163.375 2.5 C 163.375 1.601562 164.101562 0.875 165 0.875 C 165.898438 0.875 166.625 1.601562 166.625 2.5 " fill-opacity="1" fill-rule="nonzero"/><path fill="#16181a" d="M 373.9375 247.1875 C 373.9375 247.808594 373.433594 248.3125 372.8125 248.3125 C 372.191406 248.3125 371.6875 247.808594 371.6875 247.1875 C 371.6875 246.566406 372.191406 246.0625 372.8125 246.0625 C 373.433594 246.0625 373.9375 246.566406 373.9375 247.1875 " fill-opacity="1" fill-rule="nonzero"/><path fill="#16181a" d="M 139.4375 310.3125 C 139.4375 310.796875 139.828125 311.1875 140.3125 311.1875 C 140.796875 311.1875 141.1875 310.796875 141.1875 310.3125 C 141.1875 309.828125 140.796875 309.4375 140.3125 309.4375 C 139.828125 309.4375 139.4375 309.828125 139.4375 310.3125 " fill-opacity="1" fill-rule="nonzero"/><path fill="#16181a" d="M 48.6875 282.8125 C 48.6875 283.296875 48.296875 283.6875 47.8125 283.6875 C 47.328125 283.6875 46.9375 283.296875 46.9375 282.8125 C 46.9375 282.328125 47.328125 281.9375 47.8125 281.9375 C 48.296875 281.9375 48.6875 282.328125 48.6875 282.8125 " fill-opacity="1" fill-rule="nonzero"/><path fill="#16181a" d="M 61.5625 79.6875 C 61.5625 80.03125 61.28125 80.3125 60.9375 80.3125 C 60.59375 80.3125 60.3125 80.03125 60.3125 79.6875 C 60.3125 79.34375 60.59375 79.0625 60.9375 79.0625 C 61.28125 79.0625 61.5625 79.34375 61.5625 79.6875 " fill-opacity="1" fill-rule="nonzero"/><path fill="#16181a" d="M 97.375 328.75 C 97.375 329.507812 97.992188 330.125 98.75 330.125 C 99.507812 330.125 100.125 329.507812 100.125 328.75 C 100.125 327.992188 99.507812 327.375 98.75 327.375 C 97.992188 327.375 97.375 327.992188 97.375 328.75 " fill-opacity="1" fill-rule="nonzero"/><path fill="#16181a" d="M 53.3125 147.1875 C 53.3125 147.945312 53.929688 148.5625 54.6875 148.5625 C 55.445312 148.5625 56.0625 147.945312 56.0625 147.1875 C 56.0625 146.429688 55.445312 145.8125 54.6875 145.8125 C 53.929688 145.8125 53.3125 146.429688 53.3125 147.1875 " fill-opacity="1" fill-rule="nonzero"/><path fill="#16181a" d="M 99.5 19.0625 C 99.5 19.820312 98.882812 20.4375 98.125 20.4375 C 97.367188 20.4375 96.75 19.820312 96.75 19.0625 C 96.75 18.304688 97.367188 17.6875 98.125 17.6875 C 98.882812 17.6875 99.5 18.304688 99.5 19.0625 " fill-opacity="1" fill-rule="nonzero"/><path fill="#16181a" d="M 221.125 362.8125 C 221.125 363.433594 220.621094 363.9375 220 363.9375 C 219.378906 363.9375 218.875 363.433594 218.875 362.8125 C 218.875 362.191406 219.378906 361.6875 220 361.6875 C 220.621094 361.6875 221.125 362.191406 221.125 362.8125 " fill-opacity="1" fill-rule="nonzero"/><path fill="#16181a" d="M 119.8125 11.875 C 119.8125 12.496094 120.316406 13 120.9375 13 C 121.558594 13 122.0625 12.496094 122.0625 11.875 C 122.0625 11.253906 121.558594 10.75 120.9375 10.75 C 120.316406 10.75 119.8125 11.253906 119.8125 11.875 " fill-opacity="1" fill-rule="nonzero"/><path fill="#16181a" d="M 6.0625 330 C 6.0625 330.757812 5.445312 331.375 4.6875 331.375 C 3.929688 331.375 3.3125 330.757812 3.3125 330 C 3.3125 329.242188 3.929688 328.625 4.6875 328.625 C 5.445312 328.625 6.0625 329.242188 6.0625 330 " fill-opacity="1" fill-rule="nonzero"/><path fill="#16181a" d="M 309.1875 38.125 C 309.1875 38.882812 308.570312 39.5 307.8125 39.5 C 307.054688 39.5 306.4375 38.882812 306.4375 38.125 C 306.4375 37.367188 307.054688 36.75 307.8125 36.75 C 308.570312 36.75 309.1875 37.367188 309.1875 38.125 " fill-opacity="1" fill-rule="nonzero"/><path fill="#16181a" d="M 2.0625 7.1875 C 2.0625 7.945312 2.679688 8.5625 3.4375 8.5625 C 4.195312 8.5625 4.8125 7.945312 4.8125 7.1875 C 4.8125 6.429688 4.195312 5.8125 3.4375 5.8125 C 2.679688 5.8125 2.0625 6.429688 2.0625 7.1875 " fill-opacity="1" fill-rule="nonzero"/><path fill="#16181a" d="M 94.5 55 C 94.5 55.757812 93.882812 56.375 93.125 56.375 C 92.367188 56.375 91.75 55.757812 91.75 55 C 91.75 54.242188 92.367188 53.625 93.125 53.625 C 93.882812 53.625 94.5 54.242188 94.5 55 " fill-opacity="1" fill-rule="nonzero"/><path fill="#16181a" d="M 325.5625 217.5 C 325.5625 217.984375 325.171875 218.375 324.6875 218.375 C 324.203125 218.375 323.8125 217.984375 323.8125 217.5 C 323.8125 217.015625 324.203125 216.625 324.6875 216.625 C 325.171875 216.625 325.5625 217.015625 325.5625 217.5 " fill-opacity="1" fill-rule="nonzero"/><path fill="#16181a" d="M 15.1875 100.9375 C 15.1875 101.695312 15.804688 102.3125 16.5625 102.3125 C 17.320312 102.3125 17.9375 101.695312 17.9375 100.9375 C 17.9375 100.179688 17.320312 99.5625 16.5625 99.5625 C 15.804688 99.5625 15.1875 100.179688 15.1875 100.9375 " fill-opacity="1" fill-rule="nonzero"/><path fill="#16181a" d="M 131.5625 70.625 C 131.5625 70.96875 131.28125 71.25 130.9375 71.25 C 130.59375 71.25 130.3125 70.96875 130.3125 70.625 C 130.3125 70.28125 130.59375 70 130.9375 70 C 131.28125 70 131.5625 70.28125 131.5625 70.625 " fill-opacity="1" fill-rule="nonzero"/><path fill="#16181a" d="M 43.5625 103.125 C 43.5625 103.746094 44.066406 104.25 44.6875 104.25 C 45.308594 104.25 45.8125 103.746094 45.8125 103.125 C 45.8125 102.503906 45.308594 102 44.6875 102 C 44.066406 102 43.5625 102.503906 43.5625 103.125 " fill-opacity="1" fill-rule="nonzero"/><path fill="#16181a" d="M 288.5 318.125 C 288.5 318.609375 288.890625 319 289.375 319 C 289.859375 319 290.25 318.609375 290.25 318.125 C 290.25 317.640625 289.859375 317.25 289.375 317.25 C 288.890625 317.25 288.5 317.640625 288.5 318.125 " fill-opacity="1" fill-rule="nonzero"/><path fill="#16181a" d="M 118.3125 353.75 C 118.3125 354.507812 118.929688 355.125 119.6875 355.125 C 120.445312 355.125 121.0625 354.507812 121.0625 353.75 C 121.0625 352.992188 120.445312 352.375 119.6875 352.375 C 118.929688 352.375 118.3125 352.992188 118.3125 353.75 " fill-opacity="1" fill-rule="nonzero"/><path fill="#16181a" d="M 299.3125 344.0625 C 299.3125 344.960938 300.039062 345.6875 300.9375 345.6875 C 301.835938 345.6875 302.5625 344.960938 302.5625 344.0625 C 302.5625 343.164062 301.835938 342.4375 300.9375 342.4375 C 300.039062 342.4375 299.3125 343.164062 299.3125 344.0625 " fill-opacity="1" fill-rule="nonzero"/><path fill="#16181a" d="M 103.25 371.5625 C 103.25 372.183594 103.753906 372.6875 104.375 372.6875 C 104.996094 372.6875 105.5 372.183594 105.5 371.5625 C 105.5 370.941406 104.996094 370.4375 104.375 370.4375 C 103.753906 370.4375 103.25 370.941406 103.25 371.5625 " fill-opacity="1" fill-rule="nonzero"/><path fill="#16181a" d="M 358.5625 284.375 C 358.5625 285.132812 357.945312 285.75 357.1875 285.75 C 356.429688 285.75 355.8125 285.132812 355.8125 284.375 C 355.8125 283.617188 356.429688 283 357.1875 283 C 357.945312 283 358.5625 283.617188 358.5625 284.375 " fill-opacity="1" fill-rule="nonzero"/><path fill="#16181a" d="M 174.0625 365.625 C 174.0625 365.96875 173.78125 366.25 173.4375 366.25 C 173.09375 366.25 172.8125 365.96875 172.8125 365.625 C 172.8125 365.28125 173.09375 365 173.4375 365 C 173.78125 365 174.0625 365.28125 174.0625 365.625 " fill-opacity="1" fill-rule="nonzero"/><path fill="#16181a" d="M 108.875 83.75 C 108.875 84.371094 109.378906 84.875 110 84.875 C 110.621094 84.875 111.125 84.371094 111.125 83.75 C 111.125 83.128906 110.621094 82.625 110 82.625 C 109.378906 82.625 108.875 83.128906 108.875 83.75 " fill-opacity="1" fill-rule="nonzero"/><path fill="#16181a" d="M 233.625 252.5 C 233.625 253.257812 234.242188 253.875 235 253.875 C 235.757812 253.875 236.375 253.257812 236.375 252.5 C 236.375 251.742188 235.757812 251.125 235 251.125 C 234.242188 251.125 233.625 251.742188 233.625 252.5 " fill-opacity="1" fill-rule="nonzero"/><path fill="#16181a" d="M 158.75 28.75 C 158.75 29.09375 158.46875 29.375 158.125 29.375 C 157.78125 29.375 157.5 29.09375 157.5 28.75 C 157.5 28.40625 157.78125 28.125 158.125 28.125 C 158.46875 28.125 158.75 28.40625 158.75 28.75 " fill-opacity="1" fill-rule="nonzero"/><path fill="#16181a" d="M 10.3125 137.1875 C 10.3125 137.53125 10.03125 137.8125 9.6875 137.8125 C 9.34375 137.8125 9.0625 137.53125 9.0625 137.1875 C 9.0625 136.84375 9.34375 136.5625 9.6875 136.5625 C 10.03125 136.5625 10.3125 136.84375 10.3125 137.1875 " fill-opacity="1" fill-rule="nonzero"/><path fill="#16181a" d="M 238.625 332.8125 C 238.625 333.433594 238.121094 333.9375 237.5 333.9375 C 236.878906 333.9375 236.375 333.433594 236.375 332.8125 C 236.375 332.191406 236.878906 331.6875 237.5 331.6875 C 238.121094 331.6875 238.625 332.191406 238.625 332.8125 " fill-opacity="1" fill-rule="nonzero"/><path fill="#16181a" d="M 64.9375 215.625 C 64.9375 216.109375 64.546875 216.5 64.0625 216.5 C 63.578125 216.5 63.1875 216.109375 63.1875 215.625 C 63.1875 215.140625 63.578125 214.75 64.0625 214.75 C 64.546875 214.75 64.9375 215.140625 64.9375 215.625 " fill-opacity="1" fill-rule="nonzero"/><path fill="#16181a" d="M 0.5 221.5625 C 0.5 222.320312 1.117188 222.9375 1.875 222.9375 C 2.632812 222.9375 3.25 222.320312 3.25 221.5625 C 3.25 220.804688 2.632812 220.1875 1.875 220.1875 C 1.117188 220.1875 0.5 220.804688 0.5 221.5625 " fill-opacity="1" fill-rule="nonzero"/><path fill="#16181a" d="M 338.3125 180 C 338.3125 180.621094 337.808594 181.125 337.1875 181.125 C 336.566406 181.125 336.0625 180.621094 336.0625 180 C 336.0625 179.378906 336.566406 178.875 337.1875 178.875 C 337.808594 178.875 338.3125 179.378906 338.3125 180 " fill-opacity="1" fill-rule="nonzero"/><path fill="#16181a" d="M 42.625 323.4375 C 42.625 324.058594 43.128906 324.5625 43.75 324.5625 C 44.371094 324.5625 44.875 324.058594 44.875 323.4375 C 44.875 322.816406 44.371094 322.3125 43.75 322.3125 C 43.128906 322.3125 42.625 322.816406 42.625 323.4375 " fill-opacity="1" fill-rule="nonzero"/><path fill="#16181a" d="M 23.9375 249.6875 C 23.9375 250.445312 24.554688 251.0625 25.3125 251.0625 C 26.070312 251.0625 26.6875 250.445312 26.6875 249.6875 C 26.6875 248.929688 26.070312 248.3125 25.3125 248.3125 C 24.554688 248.3125 23.9375 248.929688 23.9375 249.6875 " fill-opacity="1" fill-rule="nonzero"/><path fill="#16181a" d="M 371.6875 135 C 371.6875 135.757812 371.070312 136.375 370.3125 136.375 C 369.554688 136.375 368.9375 135.757812 368.9375 135 C 368.9375 134.242188 369.554688 133.625 370.3125 133.625 C 371.070312 133.625 371.6875 134.242188 371.6875 135 " fill-opacity="1" fill-rule="nonzero"/><path fill="#16181a" d="M 307.5 69.375 C 307.5 69.71875 307.78125 70 308.125 70 C 308.46875 70 308.75 69.71875 308.75 69.375 C 308.75 69.03125 308.46875 68.75 308.125 68.75 C 307.78125 68.75 307.5 69.03125 307.5 69.375 " fill-opacity="1" fill-rule="nonzero"/><path fill="#16181a" d="M 330.8125 80.625 C 330.8125 81.382812 331.429688 82 332.1875 82 C 332.945312 82 333.5625 81.382812 333.5625 80.625 C 333.5625 79.867188 332.945312 79.25 332.1875 79.25 C 331.429688 79.25 330.8125 79.867188 330.8125 80.625 " fill-opacity="1" fill-rule="nonzero"/><path fill="#16181a" d="M 277.25 0.625 C 277.25 1.109375 277.640625 1.5 278.125 1.5 C 278.609375 1.5 279 1.109375 279 0.625 C 279 0.378906 278.898438 0.160156 278.734375 0 L 277.515625 0 C 277.351562 0.160156 277.25 0.378906 277.25 0.625 " fill-opacity="1" fill-rule="nonzero"/><path fill="#16181a" d="M 155.5625 240.3125 C 155.5625 240.796875 155.171875 241.1875 154.6875 241.1875 C 154.203125 241.1875 153.8125 240.796875 153.8125 240.3125 C 153.8125 239.828125 154.203125 239.4375 154.6875 239.4375 C 155.171875 239.4375 155.5625 239.828125 155.5625 240.3125 " fill-opacity="1" fill-rule="nonzero"/><path fill="#16181a" d="M 356.875 166.875 C 356.875 167.21875 357.15625 167.5 357.5 167.5 C 357.84375 167.5 358.125 167.21875 358.125 166.875 C 358.125 166.53125 357.84375 166.25 357.5 166.25 C 357.15625 166.25 356.875 166.53125 356.875 166.875 " fill-opacity="1" fill-rule="nonzero"/><path fill="#16181a" d="M 22.3125 74.6875 C 22.3125 75.308594 22.816406 75.8125 23.4375 75.8125 C 24.058594 75.8125 24.5625 75.308594 24.5625 74.6875 C 24.5625 74.066406 24.058594 73.5625 23.4375 73.5625 C 22.816406 73.5625 22.3125 74.066406 22.3125 74.6875 " fill-opacity="1" fill-rule="nonzero"/><path fill="#16181a" d="M 249.25 22.8125 C 249.25 23.570312 249.867188 24.1875 250.625 24.1875 C 251.382812 24.1875 252 23.570312 252 22.8125 C 252 22.054688 251.382812 21.4375 250.625 21.4375 C 249.867188 21.4375 249.25 22.054688 249.25 22.8125 " fill-opacity="1" fill-rule="nonzero"/><path fill="#16181a" d="M 114.6875 139.375 C 114.6875 139.71875 114.96875 140 115.3125 140 C 115.65625 140 115.9375 139.71875 115.9375 139.375 C 115.9375 139.03125 115.65625 138.75 115.3125 138.75 C 114.96875 138.75 114.6875 139.03125 114.6875 139.375 " fill-opacity="1" fill-rule="nonzero"/><path fill="#16181a" d="M 258.25 145.3125 C 258.25 145.933594 258.753906 146.4375 259.375 146.4375 C 259.996094 146.4375 260.5 145.933594 260.5 145.3125 C 260.5 144.691406 259.996094 144.1875 259.375 144.1875 C 258.753906 144.1875 258.25 144.691406 258.25 145.3125 " fill-opacity="1" fill-rule="nonzero"/><path fill="#16181a" d="M 343.5 348.4375 C 343.5 348.921875 343.890625 349.3125 344.375 349.3125 C 344.859375 349.3125 345.25 348.921875 345.25 348.4375 C 345.25 347.953125 344.859375 347.5625 344.375 347.5625 C 343.890625 347.5625 343.5 347.953125 343.5 348.4375 " fill-opacity="1" fill-rule="nonzero"/><path fill="#16181a" d="M 287.8125 58.4375 C 287.8125 58.78125 287.53125 59.0625 287.1875 59.0625 C 286.84375 59.0625 286.5625 58.78125 286.5625 58.4375 C 286.5625 58.09375 286.84375 57.8125 287.1875 57.8125 C 287.53125 57.8125 287.8125 58.09375 287.8125 58.4375 " fill-opacity="1" fill-rule="nonzero"/><path fill="#16181a" d="M 216.625 10.625 C 216.625 11.523438 215.898438 12.25 215 12.25 C 214.101562 12.25 213.375 11.523438 213.375 10.625 C 213.375 9.726562 214.101562 9 215 9 C 215.898438 9 216.625 9.726562 216.625 10.625 " fill-opacity="1" fill-rule="nonzero"/><path fill="#16181a" d="M 357.8125 310.9375 C 357.8125 311.28125 358.09375 311.5625 358.4375 311.5625 C 358.78125 311.5625 359.0625 311.28125 359.0625 310.9375 C 359.0625 310.59375 358.78125 310.3125 358.4375 310.3125 C 358.09375 310.3125 357.8125 310.59375 357.8125 310.9375 " fill-opacity="1" fill-rule="nonzero"/><path fill="#16181a" d="M 320.125 116.25 C 320.125 117.007812 319.507812 117.625 318.75 117.625 C 317.992188 117.625 317.375 117.007812 317.375 116.25 C 317.375 115.492188 317.992188 114.875 318.75 114.875 C 319.507812 114.875 320.125 115.492188 320.125 116.25 " fill-opacity="1" fill-rule="nonzero"/><path fill="#16181a" d="M 260.875 55.3125 C 260.875 55.796875 260.484375 56.1875 260 56.1875 C 259.515625 56.1875 259.125 55.796875 259.125 55.3125 C 259.125 54.828125 259.515625 54.4375 260 54.4375 C 260.484375 54.4375 260.875 54.828125 260.875 55.3125 " fill-opacity="1" fill-rule="nonzero"/><path fill="#16181a" d="M 148.5625 335.9375 C 148.5625 336.695312 147.945312 337.3125 147.1875 337.3125 C 146.429688 337.3125 145.8125 336.695312 145.8125 335.9375 C 145.8125 335.179688 146.429688 334.5625 147.1875 334.5625 C 147.945312 334.5625 148.5625 335.179688 148.5625 335.9375 " fill-opacity="1" fill-rule="nonzero"/><path fill="#16181a" d="M 283 202.8125 C 283 203.433594 282.496094 203.9375 281.875 203.9375 C 281.253906 203.9375 280.75 203.433594 280.75 202.8125 C 280.75 202.191406 281.253906 201.6875 281.875 201.6875 C 282.496094 201.6875 283 202.191406 283 202.8125 " fill-opacity="1" fill-rule="nonzero"/><path fill="#16181a" d="M 191.5 292.5 C 191.5 292.984375 191.109375 293.375 190.625 293.375 C 190.140625 293.375 189.75 292.984375 189.75 292.5 C 189.75 292.015625 190.140625 291.625 190.625 291.625 C 191.109375 291.625 191.5 292.015625 191.5 292.5 " fill-opacity="1" fill-rule="nonzero"/><path fill="#16181a" d="M 144.0625 48.75 C 144.0625 49.09375 143.78125 49.375 143.4375 49.375 C 143.09375 49.375 142.8125 49.09375 142.8125 48.75 C 142.8125 48.40625 143.09375 48.125 143.4375 48.125 C 143.78125 48.125 144.0625 48.40625 144.0625 48.75 " fill-opacity="1" fill-rule="nonzero"/><path fill="#16181a" d="M 285.5 159.6875 C 285.5 160.308594 284.996094 160.8125 284.375 160.8125 C 283.753906 160.8125 283.25 160.308594 283.25 159.6875 C 283.25 159.066406 283.753906 158.5625 284.375 158.5625 C 284.996094 158.5625 285.5 159.066406 285.5 159.6875 " fill-opacity="1" fill-rule="nonzero"/><path fill="#16181a" d="M 140.125 223.125 C 140.125 223.882812 139.507812 224.5 138.75 224.5 C 137.992188 224.5 137.375 223.882812 137.375 223.125 C 137.375 222.367188 137.992188 221.75 138.75 221.75 C 139.507812 221.75 140.125 222.367188 140.125 223.125 " fill-opacity="1" fill-rule="nonzero"/><path fill="#16181a" d="M 130.4375 255.9375 C 130.4375 256.695312 129.820312 257.3125 129.0625 257.3125 C 128.304688 257.3125 127.6875 256.695312 127.6875 255.9375 C 127.6875 255.179688 128.304688 254.5625 129.0625 254.5625 C 129.820312 254.5625 130.4375 255.179688 130.4375 255.9375 " fill-opacity="1" fill-rule="nonzero"/><path fill="#16181a" d="M 250.3125 354.375 C 250.3125 354.71875 250.03125 355 249.6875 355 C 249.34375 355 249.0625 354.71875 249.0625 354.375 C 249.0625 354.03125 249.34375 353.75 249.6875 353.75 C 250.03125 353.75 250.3125 354.03125 250.3125 354.375 " fill-opacity="1" fill-rule="nonzero"/><path fill="#16181a" d="M 82.3125 94.375 C 82.3125 94.996094 82.816406 95.5 83.4375 95.5 C 84.058594 95.5 84.5625 94.996094 84.5625 94.375 C 84.5625 93.753906 84.058594 93.25 83.4375 93.25 C 82.816406 93.25 82.3125 93.753906 82.3125 94.375 " fill-opacity="1" fill-rule="nonzero"/><path fill="#16181a" d="M 213.6875 140 C 213.6875 140.898438 214.414062 141.625 215.3125 141.625 C 216.210938 141.625 216.9375 140.898438 216.9375 140 C 216.9375 139.101562 216.210938 138.375 215.3125 138.375 C 214.414062 138.375 213.6875 139.101562 213.6875 140 " fill-opacity="1" fill-rule="nonzero"/><path fill="#16181a" d="M 178.6875 66.5625 C 178.6875 67.460938 179.414062 68.1875 180.3125 68.1875 C 181.210938 68.1875 181.9375 67.460938 181.9375 66.5625 C 181.9375 65.664062 181.210938 64.9375 180.3125 64.9375 C 179.414062 64.9375 178.6875 65.664062 178.6875 66.5625 " fill-opacity="1" fill-rule="nonzero"/><path fill="#16181a" d="M 312.5625 3.4375 C 312.5625 4.335938 311.835938 5.0625 310.9375 5.0625 C 310.039062 5.0625 309.3125 4.335938 309.3125 3.4375 C 309.3125 2.539062 310.039062 1.8125 310.9375 1.8125 C 311.835938 1.8125 312.5625 2.539062 312.5625 3.4375 " fill-opacity="1" fill-rule="nonzero"/><path fill="#16181a" d="M 373.625 78.75 C 373.625 79.507812 374.242188 80.125 375 80.125 L 375 77.375 C 374.242188 77.375 373.625 77.992188 373.625 78.75 " fill-opacity="1" fill-rule="nonzero"/><path fill="#16181a" d="M 1.375 78.75 C 1.375 77.992188 0.757812 77.375 0 77.375 L 0 80.125 C 0.757812 80.125 1.375 79.507812 1.375 78.75 " fill-opacity="1" fill-rule="nonzero"/><path fill="#16181a" d="M 30.25 304.375 C 30.25 304.859375 29.859375 305.25 29.375 305.25 C 28.890625 305.25 28.5 304.859375 28.5 304.375 C 28.5 303.890625 28.890625 303.5 29.375 303.5 C 29.859375 303.5 30.25 303.890625 30.25 304.375 " fill-opacity="1" fill-rule="nonzero"/><path fill="#16181a" d="M 236.5625 84.375 C 236.5625 84.71875 236.84375 85 237.1875 85 C 237.53125 85 237.8125 84.71875 237.8125 84.375 C 237.8125 84.03125 237.53125 83.75 237.1875 83.75 C 236.84375 83.75 236.5625 84.03125 236.5625 84.375 " fill-opacity="1" fill-rule="nonzero"/><path fill="#16181a" d="M 322.0625 362.1875 C 322.0625 362.808594 321.558594 363.3125 320.9375 363.3125 C 320.316406 363.3125 319.8125 362.808594 319.8125 362.1875 C 319.8125 361.566406 320.316406 361.0625 320.9375 361.0625 C 321.558594 361.0625 322.0625 361.566406 322.0625 362.1875 " fill-opacity="1" fill-rule="nonzero"/><path fill="#16181a" d="M 217.75 104.6875 C 217.75 105.171875 217.359375 105.5625 216.875 105.5625 C 216.390625 105.5625 216 105.171875 216 104.6875 C 216 104.203125 216.390625 103.8125 216.875 103.8125 C 217.359375 103.8125 217.75 104.203125 217.75 104.6875 " fill-opacity="1" fill-rule="nonzero"/><path fill="#16181a" d="M 270.625 336.875 C 270.625 337.21875 270.90625 337.5 271.25 337.5 C 271.59375 337.5 271.875 337.21875 271.875 336.875 C 271.875 336.53125 271.59375 336.25 271.25 336.25 C 270.90625 336.25 270.625 336.53125 270.625 336.875 " fill-opacity="1" fill-rule="nonzero"/><path fill="#16181a" d="M 139.5 370.625 C 139.5 371.382812 138.882812 372 138.125 372 C 137.367188 372 136.75 371.382812 136.75 370.625 C 136.75 369.867188 137.367188 369.25 138.125 369.25 C 138.882812 369.25 139.5 369.867188 139.5 370.625 " fill-opacity="1" fill-rule="nonzero"/><path fill="#16181a" d="M 54.5625 11.25 C 54.5625 11.871094 54.058594 12.375 53.4375 12.375 C 52.816406 12.375 52.3125 11.871094 52.3125 11.25 C 52.3125 10.628906 52.816406 10.125 53.4375 10.125 C 54.058594 10.125 54.5625 10.628906 54.5625 11.25 " fill-opacity="1" fill-rule="nonzero"/><path fill="#16181a" d="M 95.0625 120 C 95.0625 120.484375 95.453125 120.875 95.9375 120.875 C 96.421875 120.875 96.8125 120.484375 96.8125 120 C 96.8125 119.515625 96.421875 119.125 95.9375 119.125 C 95.453125 119.125 95.0625 119.515625 95.0625 120 " fill-opacity="1" fill-rule="nonzero"/><path fill="#16181a" d="M 87.9375 157.5 C 87.9375 158.257812 87.320312 158.875 86.5625 158.875 C 85.804688 158.875 85.1875 158.257812 85.1875 157.5 C 85.1875 156.742188 85.804688 156.125 86.5625 156.125 C 87.320312 156.125 87.9375 156.742188 87.9375 157.5 " fill-opacity="1" fill-rule="nonzero"/><path fill="#16181a" d="M 233 159.0625 C 233 159.820312 233.617188 160.4375 234.375 160.4375 C 235.132812 160.4375 235.75 159.820312 235.75 159.0625 C 235.75 158.304688 235.132812 157.6875 234.375 157.6875 C 233.617188 157.6875 233 158.304688 233 159.0625 " fill-opacity="1" fill-rule="nonzero"/><path fill="#16181a" d="M 280.5625 288.4375 C 280.5625 289.335938 281.289062 290.0625 282.1875 290.0625 C 283.085938 290.0625 283.8125 289.335938 283.8125 288.4375 C 283.8125 287.539062 283.085938 286.8125 282.1875 286.8125 C 281.289062 286.8125 280.5625 287.539062 280.5625 288.4375 " fill-opacity="1" fill-rule="nonzero"/><path fill="#16181a" d="M 66 310.625 C 66 311.523438 65.273438 312.25 64.375 312.25 C 63.476562 312.25 62.75 311.523438 62.75 310.625 C 62.75 309.726562 63.476562 309 64.375 309 C 65.273438 309 66 309.726562 66 310.625 " fill-opacity="1" fill-rule="nonzero"/><path fill="#16181a" d="M 39.375 125.9375 C 39.375 126.28125 39.09375 126.5625 38.75 126.5625 C 38.40625 126.5625 38.125 126.28125 38.125 125.9375 C 38.125 125.59375 38.40625 125.3125 38.75 125.3125 C 39.09375 125.3125 39.375 125.59375 39.375 125.9375 " fill-opacity="1" fill-rule="nonzero"/><path fill="#16181a" d="M 332.5625 323.125 C 332.5625 324.023438 331.835938 324.75 330.9375 324.75 C 330.039062 324.75 329.3125 324.023438 329.3125 323.125 C 329.3125 322.226562 330.039062 321.5 330.9375 321.5 C 331.835938 321.5 332.5625 322.226562 332.5625 323.125 " fill-opacity="1" fill-rule="nonzero"/><path fill="#16181a" d="M 242.75 115.9375 C 242.75 116.421875 242.359375 116.8125 241.875 116.8125 C 241.390625 116.8125 241 116.421875 241 115.9375 C 241 115.453125 241.390625 115.0625 241.875 115.0625 C 242.359375 115.0625 242.75 115.453125 242.75 115.9375 " fill-opacity="1" fill-rule="nonzero"/><path fill="#16181a" d="M 89.75 250.9375 C 89.75 251.421875 90.140625 251.8125 90.625 251.8125 C 91.109375 251.8125 91.5 251.421875 91.5 250.9375 C 91.5 250.453125 91.109375 250.0625 90.625 250.0625 C 90.140625 250.0625 89.75 250.453125 89.75 250.9375 " fill-opacity="1" fill-rule="nonzero"/><path fill="#16181a" d="M 32.5625 163.4375 C 32.5625 163.921875 32.953125 164.3125 33.4375 164.3125 C 33.921875 164.3125 34.3125 163.921875 34.3125 163.4375 C 34.3125 162.953125 33.921875 162.5625 33.4375 162.5625 C 32.953125 162.5625 32.5625 162.953125 32.5625 163.4375 " fill-opacity="1" fill-rule="nonzero"/><path fill="#16181a" d="M 255.5625 238.75 C 255.5625 239.234375 255.171875 239.625 254.6875 239.625 C 254.203125 239.625 253.8125 239.234375 253.8125 238.75 C 253.8125 238.265625 254.203125 237.875 254.6875 237.875 C 255.171875 237.875 255.5625 238.265625 255.5625 238.75 " fill-opacity="1" fill-rule="nonzero"/><path fill="#16181a" d="M 222.5625 219.0625 C 222.5625 219.960938 221.835938 220.6875 220.9375 220.6875 C 220.039062 220.6875 219.3125 219.960938 219.3125 219.0625 C 219.3125 218.164062 220.039062 217.4375 220.9375 217.4375 C 221.835938 217.4375 222.5625 218.164062 222.5625 219.0625 " fill-opacity="1" fill-rule="nonzero"/><path fill="#16181a" d="M 111.6875 166.5625 C 111.6875 167.320312 111.070312 167.9375 110.3125 167.9375 C 109.554688 167.9375 108.9375 167.320312 108.9375 166.5625 C 108.9375 165.804688 109.554688 165.1875 110.3125 165.1875 C 111.070312 165.1875 111.6875 165.804688 111.6875 166.5625 " fill-opacity="1" fill-rule="nonzero"/><path fill="#16181a" d="M 23.125 275.625 C 23.125 275.96875 23.40625 276.25 23.75 276.25 C 24.09375 276.25 24.375 275.96875 24.375 275.625 C 24.375 275.28125 24.09375 275 23.75 275 C 23.40625 275 23.125 275.28125 23.125 275.625 " fill-opacity="1" fill-rule="nonzero"/><path fill="#16181a" d="M 9.9375 355.9375 C 9.9375 356.835938 10.664062 357.5625 11.5625 357.5625 C 12.460938 357.5625 13.1875 356.835938 13.1875 355.9375 C 13.1875 355.039062 12.460938 354.3125 11.5625 354.3125 C 10.664062 354.3125 9.9375 355.039062 9.9375 355.9375 " fill-opacity="1" fill-rule="nonzero"/><path fill="#16181a" d="M 329.5625 282.5 C 329.5625 283.257812 330.179688 283.875 330.9375 283.875 C 331.695312 283.875 332.3125 283.257812 332.3125 282.5 C 332.3125 281.742188 331.695312 281.125 330.9375 281.125 C 330.179688 281.125 329.5625 281.742188 329.5625 282.5 " fill-opacity="1" fill-rule="nonzero"/><path fill="#16181a" d="M 102.625 193.75 C 102.625 194.371094 103.128906 194.875 103.75 194.875 C 104.371094 194.875 104.875 194.371094 104.875 193.75 C 104.875 193.128906 104.371094 192.625 103.75 192.625 C 103.128906 192.625 102.625 193.128906 102.625 193.75 " fill-opacity="1" fill-rule="nonzero"/><path fill="#16181a" d="M 78.25 353.75 C 78.25 354.371094 78.753906 354.875 79.375 354.875 C 79.996094 354.875 80.5 354.371094 80.5 353.75 C 80.5 353.128906 79.996094 352.625 79.375 352.625 C 78.753906 352.625 78.25 353.128906 78.25 353.75 " fill-opacity="1" fill-rule="nonzero"/><path fill="#16181a" d="M 119.625 293.4375 C 119.625 294.335938 120.351562 295.0625 121.25 295.0625 C 122.148438 295.0625 122.875 294.335938 122.875 293.4375 C 122.875 292.539062 122.148438 291.8125 121.25 291.8125 C 120.351562 291.8125 119.625 292.539062 119.625 293.4375 " fill-opacity="1" fill-rule="nonzero"/><path fill="#16181a" d="M 185.1875 337.1875 C 185.1875 337.808594 184.683594 338.3125 184.0625 338.3125 C 183.441406 338.3125 182.9375 337.808594 182.9375 337.1875 C 182.9375 336.566406 183.441406 336.0625 184.0625 336.0625 C 184.683594 336.0625 185.1875 336.566406 185.1875 337.1875 " fill-opacity="1" fill-rule="nonzero"/><path fill="#16181a" d="M 280.875 31.875 C 280.875 32.773438 281.601562 33.5 282.5 33.5 C 283.398438 33.5 284.125 32.773438 284.125 31.875 C 284.125 30.976562 283.398438 30.25 282.5 30.25 C 281.601562 30.25 280.875 30.976562 280.875 31.875 " fill-opacity="1" fill-rule="nonzero"/><path fill="#16181a" d="M 146.6875 92.5 C 146.6875 93.121094 147.191406 93.625 147.8125 93.625 C 148.433594 93.625 148.9375 93.121094 148.9375 92.5 C 148.9375 91.878906 148.433594 91.375 147.8125 91.375 C 147.191406 91.375 146.6875 91.878906 146.6875 92.5 " fill-opacity="1" fill-rule="nonzero"/><path fill="#16181a" d="M 195.8125 41.25 C 195.8125 41.871094 195.308594 42.375 194.6875 42.375 C 194.066406 42.375 193.5625 41.871094 193.5625 41.25 C 193.5625 40.628906 194.066406 40.125 194.6875 40.125 C 195.308594 40.125 195.8125 40.628906 195.8125 41.25 " fill-opacity="1" fill-rule="nonzero"/><path fill="#16181a" d="M 354.0625 374.25 C 353.527344 374.25 353.070312 374.558594 352.84375 375 L 355.28125 375 C 355.054688 374.558594 354.597656 374.25 354.0625 374.25 " fill-opacity="1" fill-rule="nonzero"/><path fill="#16181a" d="M 354.0625 2 C 354.820312 2 355.4375 1.382812 355.4375 0.625 C 355.4375 0.398438 355.378906 0.1875 355.28125 0 L 352.84375 0 C 352.746094 0.1875 352.6875 0.398438 352.6875 0.625 C 352.6875 1.382812 353.304688 2 354.0625 2 " fill-opacity="1" fill-rule="nonzero"/><path fill="#16181a" d="M 11.375 193.75 C 11.375 194.371094 11.878906 194.875 12.5 194.875 C 13.121094 194.875 13.625 194.371094 13.625 193.75 C 13.625 193.128906 13.121094 192.625 12.5 192.625 C 11.878906 192.625 11.375 193.128906 11.375 193.75 " fill-opacity="1" fill-rule="nonzero"/><path fill="#16181a" d="M 337.625 53.75 C 337.625 54.371094 338.128906 54.875 338.75 54.875 C 339.371094 54.875 339.875 54.371094 339.875 53.75 C 339.875 53.128906 339.371094 52.625 338.75 52.625 C 338.128906 52.625 337.625 53.128906 337.625 53.75 " fill-opacity="1" fill-rule="nonzero"/><path fill="#16181a" d="M 221 191.875 C 221 192.773438 220.273438 193.5 219.375 193.5 C 218.476562 193.5 217.75 192.773438 217.75 191.875 C 217.75 190.976562 218.476562 190.25 219.375 190.25 C 220.273438 190.25 221 190.976562 221 191.875 " fill-opacity="1" fill-rule="nonzero"/><path fill="#16181a" d="M 83.4375 180.3125 C 83.4375 180.65625 83.71875 180.9375 84.0625 180.9375 C 84.40625 180.9375 84.6875 180.65625 84.6875 180.3125 C 84.6875 179.96875 84.40625 179.6875 84.0625 179.6875 C 83.71875 179.6875 83.4375 179.96875 83.4375 180.3125 " fill-opacity="1" fill-rule="nonzero"/><path fill="#16181a" d="M 95.75 289.6875 C 95.75 290.445312 95.132812 291.0625 94.375 291.0625 C 93.617188 291.0625 93 290.445312 93 289.6875 C 93 288.929688 93.617188 288.3125 94.375 288.3125 C 95.132812 288.3125 95.75 288.929688 95.75 289.6875 " fill-opacity="1" fill-rule="nonzero"/><path fill="#16181a" d="M 116.75 214.0625 C 116.75 214.683594 116.246094 215.1875 115.625 215.1875 C 115.003906 215.1875 114.5 214.683594 114.5 214.0625 C 114.5 213.441406 115.003906 212.9375 115.625 212.9375 C 116.246094 212.9375 116.75 213.441406 116.75 214.0625 " fill-opacity="1" fill-rule="nonzero"/><path fill="#16181a" d="M 197.1875 177.8125 C 197.1875 178.15625 197.46875 178.4375 197.8125 178.4375 C 198.15625 178.4375 198.4375 178.15625 198.4375 177.8125 C 198.4375 177.46875 198.15625 177.1875 197.8125 177.1875 C 197.46875 177.1875 197.1875 177.46875 197.1875 177.8125 " fill-opacity="1" fill-rule="nonzero"/><path fill="#16181a" d="M 366.5625 337.8125 C 366.5625 338.15625 366.84375 338.4375 367.1875 338.4375 C 367.53125 338.4375 367.8125 338.15625 367.8125 337.8125 C 367.8125 337.46875 367.53125 337.1875 367.1875 337.1875 C 366.84375 337.1875 366.5625 337.46875 366.5625 337.8125 " fill-opacity="1" fill-rule="nonzero"/><path fill="#16181a" d="M 347.75 209.0625 C 347.75 209.546875 347.359375 209.9375 346.875 209.9375 C 346.390625 209.9375 346 209.546875 346 209.0625 C 346 208.578125 346.390625 208.1875 346.875 208.1875 C 347.359375 208.1875 347.75 208.578125 347.75 209.0625 " fill-opacity="1" fill-rule="nonzero"/><path fill="#16181a" d="M 50.875 235.9375 C 50.875 236.421875 50.484375 236.8125 50 236.8125 C 49.515625 236.8125 49.125 236.421875 49.125 235.9375 C 49.125 235.453125 49.515625 235.0625 50 235.0625 C 50.484375 235.0625 50.875 235.453125 50.875 235.9375 " fill-opacity="1" fill-rule="nonzero"/><path fill="#16181a" d="M 167.875 317.8125 C 167.875 318.710938 167.148438 319.4375 166.25 319.4375 C 165.351562 319.4375 164.625 318.710938 164.625 317.8125 C 164.625 316.914062 165.351562 316.1875 166.25 316.1875 C 167.148438 316.1875 167.875 316.914062 167.875 317.8125 " fill-opacity="1" fill-rule="nonzero"/><path fill="#16181a" d="M 263.5 96.5625 C 263.5 97.460938 262.773438 98.1875 261.875 98.1875 C 260.976562 98.1875 260.25 97.460938 260.25 96.5625 C 260.25 95.664062 260.976562 94.9375 261.875 94.9375 C 262.773438 94.9375 263.5 95.664062 263.5 96.5625 " fill-opacity="1" fill-rule="nonzero"/><path fill="#16181a" d="M 313.1875 257.1875 C 313.1875 257.671875 313.578125 258.0625 314.0625 258.0625 C 314.546875 258.0625 314.9375 257.671875 314.9375 257.1875 C 314.9375 256.703125 314.546875 256.3125 314.0625 256.3125 C 313.578125 256.3125 313.1875 256.703125 313.1875 257.1875 " fill-opacity="1" fill-rule="nonzero"/><path fill="#16181a" d="M 344 233.4375 C 344 234.335938 344.726562 235.0625 345.625 235.0625 C 346.523438 235.0625 347.25 234.335938 347.25 233.4375 C 347.25 232.539062 346.523438 231.8125 345.625 231.8125 C 344.726562 231.8125 344 232.539062 344 233.4375 " fill-opacity="1" fill-rule="nonzero"/><path fill="#16181a" d="M 302.25 232.1875 C 302.25 232.671875 302.640625 233.0625 303.125 233.0625 C 303.609375 233.0625 304 232.671875 304 232.1875 C 304 231.703125 303.609375 231.3125 303.125 231.3125 C 302.640625 231.3125 302.25 231.703125 302.25 232.1875 " fill-opacity="1" fill-rule="nonzero"/><path fill="#16181a" d="M 168 150 C 168 150.757812 168.617188 151.375 169.375 151.375 C 170.132812 151.375 170.75 150.757812 170.75 150 C 170.75 149.242188 170.132812 148.625 169.375 148.625 C 168.617188 148.625 168 149.242188 168 150 " fill-opacity="1" fill-rule="nonzero"/><path fill="#16181a" d="M 248 199.6875 C 248 200.445312 248.617188 201.0625 249.375 201.0625 C 250.132812 201.0625 250.75 200.445312 250.75 199.6875 C 250.75 198.929688 250.132812 198.3125 249.375 198.3125 C 248.617188 198.3125 248 198.929688 248 199.6875 " fill-opacity="1" fill-rule="nonzero"/><path fill="#16181a" d="M 351.1875 92.5 C 351.1875 93.398438 351.914062 94.125 352.8125 94.125 C 353.710938 94.125 354.4375 93.398438 354.4375 92.5 C 354.4375 91.601562 353.710938 90.875 352.8125 90.875 C 351.914062 90.875 351.1875 91.601562 351.1875 92.5 " fill-opacity="1" fill-rule="nonzero"/><path fill="#16181a" d="M 182 230.625 C 182 231.382812 181.382812 232 180.625 232 C 179.867188 232 179.25 231.382812 179.25 230.625 C 179.25 229.867188 179.867188 229.25 180.625 229.25 C 181.382812 229.25 182 229.867188 182 230.625 " fill-opacity="1" fill-rule="nonzero"/><path fill="#16181a" d="M 203.6875 310 C 203.6875 310.484375 203.296875 310.875 202.8125 310.875 C 202.328125 310.875 201.9375 310.484375 201.9375 310 C 201.9375 309.515625 202.328125 309.125 202.8125 309.125 C 203.296875 309.125 203.6875 309.515625 203.6875 310 " fill-opacity="1" fill-rule="nonzero"/><path fill="#16181a" d="M 253.8125 279.0625 C 253.8125 279.960938 253.085938 280.6875 252.1875 280.6875 C 251.289062 280.6875 250.5625 279.960938 250.5625 279.0625 C 250.5625 278.164062 251.289062 277.4375 252.1875 277.4375 C 253.085938 277.4375 253.8125 278.164062 253.8125 279.0625 " fill-opacity="1" fill-rule="nonzero"/><path fill="#16181a" d="M 136.9375 121.5625 C 136.9375 122.046875 137.328125 122.4375 137.8125 122.4375 C 138.296875 122.4375 138.6875 122.046875 138.6875 121.5625 C 138.6875 121.078125 138.296875 120.6875 137.8125 120.6875 C 137.328125 120.6875 136.9375 121.078125 136.9375 121.5625 " fill-opacity="1" fill-rule="nonzero"/><path fill="#16181a" d="M 339.4375 28.125 C 339.4375 28.609375 339.828125 29 340.3125 29 C 340.796875 29 341.1875 28.609375 341.1875 28.125 C 341.1875 27.640625 340.796875 27.25 340.3125 27.25 C 339.828125 27.25 339.4375 27.640625 339.4375 28.125 " fill-opacity="1" fill-rule="nonzero"/><path fill="#16181a" d="M 181.5 96.5625 C 181.5 97.046875 181.109375 97.4375 180.625 97.4375 C 180.140625 97.4375 179.75 97.046875 179.75 96.5625 C 179.75 96.078125 180.140625 95.6875 180.625 95.6875 C 181.109375 95.6875 181.5 96.078125 181.5 96.5625 " fill-opacity="1" fill-rule="nonzero"/><path fill="#16181a" d="M 0.8125 295.3125 C 0.8125 296.070312 1.429688 296.6875 2.1875 296.6875 C 2.945312 296.6875 3.5625 296.070312 3.5625 295.3125 C 3.5625 294.554688 2.945312 293.9375 2.1875 293.9375 C 1.429688 293.9375 0.8125 294.554688 0.8125 295.3125 " fill-opacity="1" fill-rule="nonzero"/><path fill="#16181a" d="M 170.8125 266.875 C 170.8125 267.632812 171.429688 268.25 172.1875 268.25 C 172.945312 268.25 173.5625 267.632812 173.5625 266.875 C 173.5625 266.117188 172.945312 265.5 172.1875 265.5 C 171.429688 265.5 170.8125 266.117188 170.8125 266.875 " fill-opacity="1" fill-rule="nonzero"/><path fill="#16181a" d="M 290.3125 100.9375 C 290.3125 101.28125 290.03125 101.5625 289.6875 101.5625 C 289.34375 101.5625 289.0625 101.28125 289.0625 100.9375 C 289.0625 100.59375 289.34375 100.3125 289.6875 100.3125 C 290.03125 100.3125 290.3125 100.59375 290.3125 100.9375 " fill-opacity="1" fill-rule="nonzero"/><path fill="#16181a" d="M 205.5 266.875 C 205.5 267.632812 206.117188 268.25 206.875 268.25 C 207.632812 268.25 208.25 267.632812 208.25 266.875 C 208.25 266.117188 207.632812 265.5 206.875 265.5 C 206.117188 265.5 205.5 266.117188 205.5 266.875 " fill-opacity="1" fill-rule="nonzero"/><path fill="#16181a" d="M 94.5625 227.5 C 94.5625 228.257812 95.179688 228.875 95.9375 228.875 C 96.695312 228.875 97.3125 228.257812 97.3125 227.5 C 97.3125 226.742188 96.695312 226.125 95.9375 226.125 C 95.179688 226.125 94.5625 226.742188 94.5625 227.5 " fill-opacity="1" fill-rule="nonzero"/><path fill="#16181a" d="M 74.4375 273.75 C 74.4375 274.234375 74.828125 274.625 75.3125 274.625 C 75.796875 274.625 76.1875 274.234375 76.1875 273.75 C 76.1875 273.265625 75.796875 272.875 75.3125 272.875 C 74.828125 272.875 74.4375 273.265625 74.4375 273.75 " fill-opacity="1" fill-rule="nonzero"/><path fill="#16181a" d="M 219.0625 56.5625 C 219.0625 56.90625 219.34375 57.1875 219.6875 57.1875 C 220.03125 57.1875 220.3125 56.90625 220.3125 56.5625 C 220.3125 56.21875 220.03125 55.9375 219.6875 55.9375 C 219.34375 55.9375 219.0625 56.21875 219.0625 56.5625 " fill-opacity="1" fill-rule="nonzero"/><path fill="#16181a" d="M 15.8125 52.5 C 15.8125 53.121094 15.308594 53.625 14.6875 53.625 C 14.066406 53.625 13.5625 53.121094 13.5625 52.5 C 13.5625 51.878906 14.066406 51.375 14.6875 51.375 C 15.308594 51.375 15.8125 51.878906 15.8125 52.5 " fill-opacity="1" fill-rule="nonzero"/><path fill="#16181a" d="M 306.0625 194.375 C 306.0625 194.996094 306.566406 195.5 307.1875 195.5 C 307.808594 195.5 308.3125 194.996094 308.3125 194.375 C 308.3125 193.753906 307.808594 193.25 307.1875 193.25 C 306.566406 193.25 306.0625 193.753906 306.0625 194.375 " fill-opacity="1" fill-rule="nonzero"/><path fill="#16181a" d="M 58 40 C 58 40.621094 57.496094 41.125 56.875 41.125 C 56.253906 41.125 55.75 40.621094 55.75 40 C 55.75 39.378906 56.253906 38.875 56.875 38.875 C 57.496094 38.875 58 39.378906 58 40 " fill-opacity="1" fill-rule="nonzero"/><path fill="#16181a" d="M 181.8125 19.0625 C 181.8125 19.546875 181.421875 19.9375 180.9375 19.9375 C 180.453125 19.9375 180.0625 19.546875 180.0625 19.0625 C 180.0625 18.578125 180.453125 18.1875 180.9375 18.1875 C 181.421875 18.1875 181.8125 18.578125 181.8125 19.0625 " fill-opacity="1" fill-rule="nonzero"/><path fill="#16181a" d="M 148.4375 190.3125 C 148.4375 190.65625 148.15625 190.9375 147.8125 190.9375 C 147.46875 190.9375 147.1875 190.65625 147.1875 190.3125 C 147.1875 189.96875 147.46875 189.6875 147.8125 189.6875 C 148.15625 189.6875 148.4375 189.96875 148.4375 190.3125 " fill-opacity="1" fill-rule="nonzero"/><path fill="#16181a" d="M 201.5625 75 C 201.5625 75.34375 201.84375 75.625 202.1875 75.625 C 202.53125 75.625 202.8125 75.34375 202.8125 75 C 202.8125 74.65625 202.53125 74.375 202.1875 74.375 C 201.84375 74.375 201.5625 74.65625 201.5625 75 " fill-opacity="1" fill-rule="nonzero"/></svg>