<svg xmlns="http://www.w3.org/2000/svg" xmlns:xlink="http://www.w3.org/1999/xlink" width="500" zoomAndPan="magnify" viewBox="0 0 375 37.5" height="50" preserveAspectRatio="xMidYMid meet" version="1.0"><defs><clipPath id="a8baecab2c"><path d="M 11 8.09375 L 23 8.09375 L 23 28.820312 L 11 28.820312 Z M 11 8.09375 " clip-rule="nonzero"/></clipPath><clipPath id="6462d58671"><path d="M 3 8.09375 L 15 8.09375 L 15 28.820312 L 3 28.820312 Z M 3 8.09375 " clip-rule="nonzero"/></clipPath><clipPath id="132c556ca7"><path d="M 27 8.09375 L 39 8.09375 L 39 28.820312 L 27 28.820312 Z M 27 8.09375 " clip-rule="nonzero"/></clipPath><clipPath id="4b8bee427f"><path d="M 35 8.09375 L 47 8.09375 L 47 28.820312 L 35 28.820312 Z M 35 8.09375 " clip-rule="nonzero"/></clipPath><clipPath id="7db8ccff2a"><path d="M 39 8.09375 L 57 8.09375 L 57 17 L 39 17 Z M 39 8.09375 " clip-rule="nonzero"/></clipPath><clipPath id="34a73cd706"><path d="M 39 20 L 57 20 L 57 28.820312 L 39 28.820312 Z M 39 20 " clip-rule="nonzero"/></clipPath><clipPath id="30218c88da"><path d="M 57 8.09375 L 69 8.09375 L 69 28.820312 L 57 28.820312 Z M 57 8.09375 " clip-rule="nonzero"/></clipPath><clipPath id="ee0597ad1b"><path d="M 49 8.09375 L 61 8.09375 L 61 28.820312 L 49 28.820312 Z M 49 8.09375 " clip-rule="nonzero"/></clipPath><clipPath id="6b1489d3f7"><path d="M 73 8.09375 L 85 8.09375 L 85 28.820312 L 73 28.820312 Z M 73 8.09375 " clip-rule="nonzero"/></clipPath><clipPath id="24ed032a16"><path d="M 81 8.09375 L 93 8.09375 L 93 28.820312 L 81 28.820312 Z M 81 8.09375 " clip-rule="nonzero"/></clipPath><clipPath id="ec4327181b"><path d="M 86 8.09375 L 103 8.09375 L 103 17 L 86 17 Z M 86 8.09375 " clip-rule="nonzero"/></clipPath><clipPath id="b4576fe1c5"><path d="M 86 20 L 103 20 L 103 28.820312 L 86 28.820312 Z M 86 20 " clip-rule="nonzero"/></clipPath><clipPath id="d8f1a860d8"><path d="M 104 8.09375 L 116 8.09375 L 116 28.820312 L 104 28.820312 Z M 104 8.09375 " clip-rule="nonzero"/></clipPath><clipPath id="970b3237df"><path d="M 96 8.09375 L 108 8.09375 L 108 28.820312 L 96 28.820312 Z M 96 8.09375 " clip-rule="nonzero"/></clipPath><clipPath id="6788a12d30"><path d="M 120 8.09375 L 132 8.09375 L 132 28.820312 L 120 28.820312 Z M 120 8.09375 " clip-rule="nonzero"/></clipPath><clipPath id="07eea8285d"><path d="M 128 8.09375 L 140 8.09375 L 140 28.820312 L 128 28.820312 Z M 128 8.09375 " clip-rule="nonzero"/></clipPath><clipPath id="95d285ed3d"><path d="M 132 8.09375 L 150 8.09375 L 150 17 L 132 17 Z M 132 8.09375 " clip-rule="nonzero"/></clipPath><clipPath id="6db80cc05d"><path d="M 132 20 L 150 20 L 150 28.820312 L 132 28.820312 Z M 132 20 " clip-rule="nonzero"/></clipPath><clipPath id="113ac47cde"><path d="M 150 8.09375 L 162 8.09375 L 162 28.820312 L 150 28.820312 Z M 150 8.09375 " clip-rule="nonzero"/></clipPath><clipPath id="4af8fac566"><path d="M 142 8.09375 L 154 8.09375 L 154 28.820312 L 142 28.820312 Z M 142 8.09375 " clip-rule="nonzero"/></clipPath><clipPath id="783a1e7f33"><path d="M 166 8.09375 L 178 8.09375 L 178 28.820312 L 166 28.820312 Z M 166 8.09375 " clip-rule="nonzero"/></clipPath><clipPath id="6f462738db"><path d="M 174 8.09375 L 186 8.09375 L 186 28.820312 L 174 28.820312 Z M 174 8.09375 " clip-rule="nonzero"/></clipPath><clipPath id="23a75b9be8"><path d="M 178 8.09375 L 196 8.09375 L 196 17 L 178 17 Z M 178 8.09375 " clip-rule="nonzero"/></clipPath><clipPath id="799799e92f"><path d="M 178 20 L 196 20 L 196 28.820312 L 178 28.820312 Z M 178 20 " clip-rule="nonzero"/></clipPath><clipPath id="364c055c49"><path d="M 197 8.09375 L 209 8.09375 L 209 28.820312 L 197 28.820312 Z M 197 8.09375 " clip-rule="nonzero"/></clipPath><clipPath id="7a3d4dcba6"><path d="M 189 8.09375 L 201 8.09375 L 201 28.820312 L 189 28.820312 Z M 189 8.09375 " clip-rule="nonzero"/></clipPath><clipPath id="dc0b46c20c"><path d="M 213 8.09375 L 225 8.09375 L 225 28.820312 L 213 28.820312 Z M 213 8.09375 " clip-rule="nonzero"/></clipPath><clipPath id="6b8ef45146"><path d="M 221 8.09375 L 233 8.09375 L 233 28.820312 L 221 28.820312 Z M 221 8.09375 " clip-rule="nonzero"/></clipPath><clipPath id="65a1f60acd"><path d="M 225 8.09375 L 243 8.09375 L 243 17 L 225 17 Z M 225 8.09375 " clip-rule="nonzero"/></clipPath><clipPath id="91265521cc"><path d="M 225 20 L 243 20 L 243 28.820312 L 225 28.820312 Z M 225 20 " clip-rule="nonzero"/></clipPath><clipPath id="d1c1a8fc6f"><path d="M 243 8.09375 L 255 8.09375 L 255 28.820312 L 243 28.820312 Z M 243 8.09375 " clip-rule="nonzero"/></clipPath><clipPath id="ffbefd06f0"><path d="M 235 8.09375 L 247 8.09375 L 247 28.820312 L 235 28.820312 Z M 235 8.09375 " clip-rule="nonzero"/></clipPath><clipPath id="9859e131da"><path d="M 259 8.09375 L 271 8.09375 L 271 28.820312 L 259 28.820312 Z M 259 8.09375 " clip-rule="nonzero"/></clipPath><clipPath id="35d902c432"><path d="M 267 8.09375 L 279 8.09375 L 279 28.820312 L 267 28.820312 Z M 267 8.09375 " clip-rule="nonzero"/></clipPath><clipPath id="c0515f6f88"><path d="M 271 8.09375 L 289 8.09375 L 289 17 L 271 17 Z M 271 8.09375 " clip-rule="nonzero"/></clipPath><clipPath id="1b9db94af2"><path d="M 271 20 L 289 20 L 289 28.820312 L 271 28.820312 Z M 271 20 " clip-rule="nonzero"/></clipPath><clipPath id="55437c9244"><path d="M 290 8.09375 L 302 8.09375 L 302 28.820312 L 290 28.820312 Z M 290 8.09375 " clip-rule="nonzero"/></clipPath><clipPath id="96deaf6614"><path d="M 282 8.09375 L 294 8.09375 L 294 28.820312 L 282 28.820312 Z M 282 8.09375 " clip-rule="nonzero"/></clipPath><clipPath id="9c26e4023d"><path d="M 306 8.09375 L 318 8.09375 L 318 28.820312 L 306 28.820312 Z M 306 8.09375 " clip-rule="nonzero"/></clipPath><clipPath id="7d37428b95"><path d="M 314 8.09375 L 326 8.09375 L 326 28.820312 L 314 28.820312 Z M 314 8.09375 " clip-rule="nonzero"/></clipPath><clipPath id="a7c6951520"><path d="M 336 8.09375 L 348 8.09375 L 348 28.820312 L 336 28.820312 Z M 336 8.09375 " clip-rule="nonzero"/></clipPath><clipPath id="72eabd89d4"><path d="M 328 8.09375 L 340 8.09375 L 340 28.820312 L 328 28.820312 Z M 328 8.09375 " clip-rule="nonzero"/></clipPath><clipPath id="0cf2c7cf43"><path d="M 352 8.09375 L 364 8.09375 L 364 28.820312 L 352 28.820312 Z M 352 8.09375 " clip-rule="nonzero"/></clipPath><clipPath id="baf478c013"><path d="M 360 8.09375 L 372 8.09375 L 372 28.820312 L 360 28.820312 Z M 360 8.09375 " clip-rule="nonzero"/></clipPath><clipPath id="e41d3f82a8"><path d="M 318 8.09375 L 336 8.09375 L 336 17 L 318 17 Z M 318 8.09375 " clip-rule="nonzero"/></clipPath><clipPath id="da0f3d9740"><path d="M 318 20 L 336 20 L 336 28.820312 L 318 28.820312 Z M 318 20 " clip-rule="nonzero"/></clipPath></defs><path fill="#16181a" d="M 26.046875 15.613281 C 26.046875 15.613281 20.976562 16.199219 22.683594 19.175781 C 24.390625 22.148438 26.527344 21.617188 27.0625 19.917969 C 27.59375 18.21875 24.980469 18.058594 26.046875 15.613281 Z M 26.046875 15.613281 " fillOpacity="1" fill-rule="nonzero"/><g clip-path="url(#a8baecab2c)"><path fill="#16181a" d="M 22.429688 8.09375 L 22.429688 11.921875 L 16.109375 18.210938 L 22.234375 24.308594 L 22.234375 28.820312 L 11.476562 18.109375 Z M 22.429688 8.09375 " fillOpacity="1" fill-rule="nonzero"/></g><g clip-path="url(#6462d58671)"><path fill="#16181a" d="M 14.421875 8.09375 L 14.421875 11.921875 L 8.105469 18.210938 L 14.230469 24.308594 L 14.230469 28.820312 L 3.472656 18.109375 Z M 14.421875 8.09375 " fillOpacity="1" fill-rule="nonzero"/></g><g clip-path="url(#132c556ca7)"><path fill="#16181a" d="M 27.492188 28.820312 L 27.492188 24.992188 L 33.808594 18.703125 L 27.683594 12.605469 L 27.683594 8.09375 L 38.441406 18.804688 Z M 27.492188 28.820312 " fillOpacity="1" fill-rule="nonzero"/></g><g clip-path="url(#4b8bee427f)"><path fill="#16181a" d="M 35.496094 28.820312 L 35.496094 24.992188 L 41.816406 18.703125 L 35.691406 12.605469 L 35.691406 8.09375 L 46.449219 18.804688 Z M 35.496094 28.820312 " fillOpacity="1" fill-rule="nonzero"/></g><g clip-path="url(#7db8ccff2a)"><path fill="#16181a" d="M 52.011719 8.09375 L 47.835938 12.25 L 43.664062 8.09375 L 39.644531 8.09375 L 47.734375 16.863281 L 56.542969 8.09375 Z M 52.011719 8.09375 " fillOpacity="1" fill-rule="nonzero"/></g><g clip-path="url(#34a73cd706)"><path fill="#16181a" d="M 52.011719 28.820312 L 47.835938 24.664062 L 43.664062 28.820312 L 39.644531 28.820312 L 47.734375 20.050781 L 56.542969 28.820312 Z M 52.011719 28.820312 " fillOpacity="1" fill-rule="nonzero"/></g><path fill="#16181a" d="M 72.484375 15.613281 C 72.484375 15.613281 67.414062 16.199219 69.121094 19.175781 C 70.828125 22.148438 72.964844 21.617188 73.5 19.917969 C 74.03125 18.21875 71.417969 18.058594 72.484375 15.613281 Z M 72.484375 15.613281 " fillOpacity="1" fill-rule="nonzero"/><g clip-path="url(#30218c88da)"><path fill="#16181a" d="M 68.867188 8.09375 L 68.867188 11.921875 L 62.546875 18.210938 L 68.671875 24.308594 L 68.671875 28.820312 L 57.914062 18.109375 Z M 68.867188 8.09375 " fillOpacity="1" fill-rule="nonzero"/></g><g clip-path="url(#ee0597ad1b)"><path fill="#16181a" d="M 60.859375 8.09375 L 60.859375 11.921875 L 54.542969 18.210938 L 60.667969 24.308594 L 60.667969 28.820312 L 49.910156 18.109375 Z M 60.859375 8.09375 " fillOpacity="1" fill-rule="nonzero"/></g><g clip-path="url(#6b1489d3f7)"><path fill="#16181a" d="M 73.929688 28.820312 L 73.929688 24.992188 L 80.246094 18.703125 L 74.121094 12.605469 L 74.121094 8.09375 L 84.878906 18.804688 Z M 73.929688 28.820312 " fillOpacity="1" fill-rule="nonzero"/></g><g clip-path="url(#24ed032a16)"><path fill="#16181a" d="M 81.933594 28.820312 L 81.933594 24.992188 L 88.253906 18.703125 L 82.128906 12.605469 L 82.128906 8.09375 L 92.886719 18.804688 Z M 81.933594 28.820312 " fillOpacity="1" fill-rule="nonzero"/></g><g clip-path="url(#ec4327181b)"><path fill="#16181a" d="M 98.449219 8.09375 L 94.273438 12.25 L 90.101562 8.09375 L 86.082031 8.09375 L 94.171875 16.863281 L 102.980469 8.09375 Z M 98.449219 8.09375 " fillOpacity="1" fill-rule="nonzero"/></g><g clip-path="url(#b4576fe1c5)"><path fill="#16181a" d="M 98.449219 28.820312 L 94.273438 24.664062 L 90.101562 28.820312 L 86.082031 28.820312 L 94.171875 20.050781 L 102.980469 28.820312 Z M 98.449219 28.820312 " fillOpacity="1" fill-rule="nonzero"/></g><path fill="#16181a" d="M 118.921875 15.613281 C 118.921875 15.613281 113.851562 16.199219 115.558594 19.175781 C 117.265625 22.148438 119.402344 21.617188 119.933594 19.917969 C 120.46875 18.21875 117.855469 18.058594 118.921875 15.613281 Z M 118.921875 15.613281 " fillOpacity="1" fill-rule="nonzero"/><g clip-path="url(#d8f1a860d8)"><path fill="#16181a" d="M 115.304688 8.09375 L 115.304688 11.921875 L 108.984375 18.210938 L 115.109375 24.308594 L 115.109375 28.820312 L 104.351562 18.109375 Z M 115.304688 8.09375 " fillOpacity="1" fill-rule="nonzero"/></g><g clip-path="url(#970b3237df)"><path fill="#16181a" d="M 107.296875 8.09375 L 107.296875 11.921875 L 100.980469 18.210938 L 107.105469 24.308594 L 107.105469 28.820312 L 96.347656 18.109375 Z M 107.296875 8.09375 " fillOpacity="1" fill-rule="nonzero"/></g><g clip-path="url(#6788a12d30)"><path fill="#16181a" d="M 120.367188 28.820312 L 120.367188 24.992188 L 126.683594 18.703125 L 120.558594 12.605469 L 120.558594 8.09375 L 131.316406 18.804688 Z M 120.367188 28.820312 " fillOpacity="1" fill-rule="nonzero"/></g><g clip-path="url(#07eea8285d)"><path fill="#16181a" d="M 128.371094 28.820312 L 128.371094 24.992188 L 134.691406 18.703125 L 128.5625 12.605469 L 128.5625 8.09375 L 139.324219 18.804688 Z M 128.371094 28.820312 " fillOpacity="1" fill-rule="nonzero"/></g><g clip-path="url(#95d285ed3d)"><path fill="#16181a" d="M 144.886719 8.09375 L 140.710938 12.25 L 136.539062 8.09375 L 132.519531 8.09375 L 140.609375 16.863281 L 149.417969 8.09375 Z M 144.886719 8.09375 " fillOpacity="1" fill-rule="nonzero"/></g><g clip-path="url(#6db80cc05d)"><path fill="#16181a" d="M 144.886719 28.820312 L 140.710938 24.664062 L 136.539062 28.820312 L 132.519531 28.820312 L 140.609375 20.050781 L 149.417969 28.820312 Z M 144.886719 28.820312 " fillOpacity="1" fill-rule="nonzero"/></g><path fill="#16181a" d="M 165.359375 15.613281 C 165.359375 15.613281 160.289062 16.199219 161.996094 19.175781 C 163.703125 22.148438 165.839844 21.617188 166.371094 19.917969 C 166.90625 18.21875 164.289062 18.058594 165.359375 15.613281 Z M 165.359375 15.613281 " fillOpacity="1" fill-rule="nonzero"/><g clip-path="url(#113ac47cde)"><path fill="#16181a" d="M 161.742188 8.09375 L 161.742188 11.921875 L 155.421875 18.210938 L 161.546875 24.308594 L 161.546875 28.820312 L 150.789062 18.109375 Z M 161.742188 8.09375 " fillOpacity="1" fill-rule="nonzero"/></g><g clip-path="url(#4af8fac566)"><path fill="#16181a" d="M 153.734375 8.09375 L 153.734375 11.921875 L 147.417969 18.210938 L 153.542969 24.308594 L 153.542969 28.820312 L 142.785156 18.109375 Z M 153.734375 8.09375 " fillOpacity="1" fill-rule="nonzero"/></g><g clip-path="url(#783a1e7f33)"><path fill="#16181a" d="M 166.804688 28.820312 L 166.804688 24.992188 L 173.121094 18.703125 L 166.996094 12.605469 L 166.996094 8.09375 L 177.753906 18.804688 Z M 166.804688 28.820312 " fillOpacity="1" fill-rule="nonzero"/></g><g clip-path="url(#6f462738db)"><path fill="#16181a" d="M 174.808594 28.820312 L 174.808594 24.992188 L 181.128906 18.703125 L 175 12.605469 L 175 8.09375 L 185.761719 18.804688 Z M 174.808594 28.820312 " fillOpacity="1" fill-rule="nonzero"/></g><g clip-path="url(#23a75b9be8)"><path fill="#16181a" d="M 191.324219 8.09375 L 187.148438 12.25 L 182.976562 8.09375 L 178.957031 8.09375 L 187.046875 16.863281 L 195.855469 8.09375 Z M 191.324219 8.09375 " fillOpacity="1" fill-rule="nonzero"/></g><g clip-path="url(#799799e92f)"><path fill="#16181a" d="M 191.324219 28.820312 L 187.148438 24.664062 L 182.976562 28.820312 L 178.957031 28.820312 L 187.046875 20.050781 L 195.855469 28.820312 Z M 191.324219 28.820312 " fillOpacity="1" fill-rule="nonzero"/></g><path fill="#16181a" d="M 211.796875 15.613281 C 211.796875 15.613281 206.726562 16.199219 208.433594 19.175781 C 210.140625 22.148438 212.277344 21.617188 212.808594 19.917969 C 213.34375 18.21875 210.730469 18.058594 211.796875 15.613281 Z M 211.796875 15.613281 " fillOpacity="1" fill-rule="nonzero"/><g clip-path="url(#364c055c49)"><path fill="#16181a" d="M 208.175781 8.09375 L 208.175781 11.921875 L 201.859375 18.210938 L 207.984375 24.308594 L 207.984375 28.820312 L 197.226562 18.109375 Z M 208.175781 8.09375 " fillOpacity="1" fill-rule="nonzero"/></g><g clip-path="url(#7a3d4dcba6)"><path fill="#16181a" d="M 200.171875 8.09375 L 200.171875 11.921875 L 193.855469 18.210938 L 199.980469 24.308594 L 199.980469 28.820312 L 189.222656 18.109375 Z M 200.171875 8.09375 " fillOpacity="1" fill-rule="nonzero"/></g><g clip-path="url(#dc0b46c20c)"><path fill="#16181a" d="M 213.242188 28.820312 L 213.242188 24.992188 L 219.558594 18.703125 L 213.433594 12.605469 L 213.433594 8.09375 L 224.191406 18.804688 Z M 213.242188 28.820312 " fillOpacity="1" fill-rule="nonzero"/></g><g clip-path="url(#6b8ef45146)"><path fill="#16181a" d="M 221.246094 28.820312 L 221.246094 24.992188 L 227.5625 18.703125 L 221.4375 12.605469 L 221.4375 8.09375 L 232.195312 18.804688 Z M 221.246094 28.820312 " fillOpacity="1" fill-rule="nonzero"/></g><g clip-path="url(#65a1f60acd)"><path fill="#16181a" d="M 237.761719 8.09375 L 233.585938 12.25 L 229.414062 8.09375 L 225.394531 8.09375 L 233.484375 16.863281 L 242.292969 8.09375 Z M 237.761719 8.09375 " fillOpacity="1" fill-rule="nonzero"/></g><g clip-path="url(#91265521cc)"><path fill="#16181a" d="M 237.761719 28.820312 L 233.585938 24.664062 L 229.414062 28.820312 L 225.394531 28.820312 L 233.484375 20.050781 L 242.292969 28.820312 Z M 237.761719 28.820312 " fillOpacity="1" fill-rule="nonzero"/></g><path fill="#16181a" d="M 258.234375 15.613281 C 258.234375 15.613281 253.160156 16.199219 254.871094 19.175781 C 256.578125 22.148438 258.714844 21.617188 259.246094 19.917969 C 259.78125 18.21875 257.164062 18.058594 258.234375 15.613281 Z M 258.234375 15.613281 " fillOpacity="1" fill-rule="nonzero"/><g clip-path="url(#d1c1a8fc6f)"><path fill="#16181a" d="M 254.617188 8.09375 L 254.617188 11.921875 L 248.296875 18.210938 L 254.421875 24.308594 L 254.421875 28.820312 L 243.664062 18.109375 Z M 254.617188 8.09375 " fillOpacity="1" fill-rule="nonzero"/></g><g clip-path="url(#ffbefd06f0)"><path fill="#16181a" d="M 246.609375 8.09375 L 246.609375 11.921875 L 240.292969 18.210938 L 246.414062 24.308594 L 246.414062 28.820312 L 235.660156 18.109375 Z M 246.609375 8.09375 " fillOpacity="1" fill-rule="nonzero"/></g><g clip-path="url(#9859e131da)"><path fill="#16181a" d="M 259.679688 28.820312 L 259.679688 24.992188 L 265.992188 18.703125 L 259.871094 12.605469 L 259.871094 8.09375 L 270.628906 18.804688 Z M 259.679688 28.820312 " fillOpacity="1" fill-rule="nonzero"/></g><g clip-path="url(#35d902c432)"><path fill="#16181a" d="M 267.683594 28.820312 L 267.683594 24.992188 L 274.003906 18.703125 L 267.875 12.605469 L 267.875 8.09375 L 278.636719 18.804688 Z M 267.683594 28.820312 " fillOpacity="1" fill-rule="nonzero"/></g><g clip-path="url(#c0515f6f88)"><path fill="#16181a" d="M 284.199219 8.09375 L 280.027344 12.25 L 275.851562 8.09375 L 271.832031 8.09375 L 279.921875 16.863281 L 288.730469 8.09375 Z M 284.199219 8.09375 " fillOpacity="1" fill-rule="nonzero"/></g><g clip-path="url(#1b9db94af2)"><path fill="#16181a" d="M 284.199219 28.820312 L 280.027344 24.664062 L 275.851562 28.820312 L 271.832031 28.820312 L 279.921875 20.050781 L 288.730469 28.820312 Z M 284.199219 28.820312 " fillOpacity="1" fill-rule="nonzero"/></g><path fill="#16181a" d="M 304.671875 15.613281 C 304.671875 15.613281 299.597656 16.199219 301.304688 19.175781 C 303.015625 22.148438 305.152344 21.617188 305.6875 19.917969 C 306.21875 18.21875 303.601562 18.058594 304.671875 15.613281 Z M 304.671875 15.613281 " fillOpacity="1" fill-rule="nonzero"/><g clip-path="url(#55437c9244)"><path fill="#16181a" d="M 301.050781 8.09375 L 301.050781 11.921875 L 294.734375 18.210938 L 300.859375 24.308594 L 300.859375 28.820312 L 290.105469 18.109375 Z M 301.050781 8.09375 " fillOpacity="1" fill-rule="nonzero"/></g><g clip-path="url(#96deaf6614)"><path fill="#16181a" d="M 293.046875 8.09375 L 293.046875 11.921875 L 286.730469 18.210938 L 292.855469 24.308594 L 292.855469 28.820312 L 282.097656 18.109375 Z M 293.046875 8.09375 " fillOpacity="1" fill-rule="nonzero"/></g><g clip-path="url(#9c26e4023d)"><path fill="#16181a" d="M 306.113281 28.820312 L 306.113281 24.992188 L 312.433594 18.703125 L 306.308594 12.605469 L 306.308594 8.09375 L 317.066406 18.804688 Z M 306.113281 28.820312 " fillOpacity="1" fill-rule="nonzero"/></g><g clip-path="url(#7d37428b95)"><path fill="#16181a" d="M 314.121094 28.820312 L 314.121094 24.992188 L 320.441406 18.703125 L 314.3125 12.605469 L 314.3125 8.09375 L 325.070312 18.804688 Z M 314.121094 28.820312 " fillOpacity="1" fill-rule="nonzero"/></g><path fill="#16181a" d="M 351.125 15.613281 C 351.125 15.613281 346.054688 16.199219 347.761719 19.175781 C 349.472656 22.148438 351.605469 21.617188 352.140625 19.917969 C 352.671875 18.21875 350.058594 18.058594 351.125 15.613281 Z M 351.125 15.613281 " fillOpacity="1" fill-rule="nonzero"/><g clip-path="url(#a7c6951520)"><path fill="#16181a" d="M 347.507812 8.09375 L 347.507812 11.921875 L 341.191406 18.210938 L 347.316406 24.308594 L 347.316406 28.820312 L 336.558594 18.109375 Z M 347.507812 8.09375 " fillOpacity="1" fill-rule="nonzero"/></g><g clip-path="url(#72eabd89d4)"><path fill="#16181a" d="M 339.503906 8.09375 L 339.503906 11.921875 L 333.183594 18.210938 L 339.308594 24.308594 L 339.308594 28.820312 L 328.550781 18.109375 Z M 339.503906 8.09375 " fillOpacity="1" fill-rule="nonzero"/></g><g clip-path="url(#0cf2c7cf43)"><path fill="#16181a" d="M 352.570312 28.820312 L 352.570312 24.992188 L 358.886719 18.703125 L 352.761719 12.605469 L 352.761719 8.09375 L 363.519531 18.804688 Z M 352.570312 28.820312 " fillOpacity="1" fill-rule="nonzero"/></g><g clip-path="url(#baf478c013)"><path fill="#16181a" d="M 360.578125 28.820312 L 360.578125 24.992188 L 366.894531 18.703125 L 360.769531 12.605469 L 360.769531 8.09375 L 371.527344 18.804688 Z M 360.578125 28.820312 " fillOpacity="1" fill-rule="nonzero"/></g><g clip-path="url(#e41d3f82a8)"><path fill="#16181a" d="M 330.636719 8.09375 L 326.460938 12.25 L 322.289062 8.09375 L 318.269531 8.09375 L 326.359375 16.863281 L 335.167969 8.09375 Z M 330.636719 8.09375 " fillOpacity="1" fill-rule="nonzero"/></g><g clip-path="url(#da0f3d9740)"><path fill="#16181a" d="M 330.636719 28.820312 L 326.460938 24.664062 L 322.289062 28.820312 L 318.269531 28.820312 L 326.359375 20.050781 L 335.167969 28.820312 Z M 330.636719 28.820312 " fillOpacity="1" fill-rule="nonzero"/></g></svg>