<svg xmlns="http://www.w3.org/2000/svg" xmlns:xlink="http://www.w3.org/1999/xlink" width="500" zoomAndPan="magnify" viewBox="0 0 375 374.999991" height="500" preserveAspectRatio="xMidYMid meet" version="1.0"><path stroke-linecap="round" transform="matrix(-2.924239, 0, 0, 2.922654, 409.595954, -40.706913)" fill="none" stroke-linejoin="round" d="M 121.999641 35.499853 C 123.720174 33.090068 126.520048 32.559461 129.000661 31.499583 C 130.260337 30.979668 131.780498 31.039812 133.000099 30.419657 C 134.890281 29.419923 138.109602 29.10049 137.42032 25.990357 C 136.820538 23.290542 134.070089 23.989553 132.030296 23.989553 C 126.529399 23.940101 121.029838 23.920053 115.530276 23.989553 C 110.880295 24.049697 108.809778 25.990357 108.530592 30.479801 C 107.770512 42.480613 107.770512 42.480613 95.530415 42.480613 L 88.000411 42.480613 C 82.90961 42.480613 80.800354 39.379835 82.499514 34.480072 C 84.630143 28.339998 83.430579 24.549564 78.500076 22.480597 C 75.41033 21.209546 71.239907 21.320479 69.759821 23.609975 C 67.169671 27.610246 63.879552 28.139516 60.009689 27.900275 C 54.790649 27.590197 53.330601 31.740161 51.010285 34.899746 C 50.704383 35.260612 50.370429 35.594748 50.009758 35.899479 " stroke="#000000" stroke-width="4" stroke-opacity="1" stroke-miterlimit="4"/><path stroke-linecap="round" transform="matrix(-2.924239, 0, 0, 2.922654, 409.595954, -40.706913)" fill="none" stroke-linejoin="round" d="M 87.499479 127.49939 C 86.870309 127.090408 85.689447 128.429623 85.439649 126.499656 C 83.8901 114.649874 82.06003 102.840189 80.579944 90.979714 C 80.22996 88.159611 79.019709 87.249425 76.500357 87.499359 C 74.260191 87.719888 71.070259 86.349933 70.499864 90.000029 C 68.700518 102.480659 67.120246 115.000048 65.499899 127.490034 " stroke="#000000" stroke-width="4" stroke-opacity="1" stroke-miterlimit="4"/><path stroke-linecap="round" transform="matrix(-2.924239, 0, 0, 2.922654, 409.595954, -40.706913)" fill="none" stroke-linejoin="round" d="M 53.999845 32.500653 C 57.359426 33.920061 60.999529 34.040349 64.499372 34.50012 C 68.669794 35.060131 69.730433 37.199935 68.660444 40.499857 C 67.969826 42.630305 66.93056 42.440516 65.499899 42.500661 C 60.169987 42.500661 54.829388 42.659709 49.499476 42.440516 C 46.240081 42.300179 43.500319 41.439446 43.340021 37.010146 C 43.250521 34.689909 43.139648 32.329576 43.010074 30.009339 C 42.769626 25.669586 41.340302 24.109842 37.009581 24.009601 C 30.839439 23.900005 24.679984 24.009601 18.509843 24.009601 C 16.840071 24.009601 14.949889 23.67012 14.510405 26.010405 C 14.16042 27.949727 15.440134 28.870605 16.989682 29.509472 C 19.479646 30.510542 21.920185 31.979402 24.510335 32.369672 C 25.577654 32.562134 26.582188 32.92701 27.52394 33.462963 C 28.465691 34.000253 29.291227 34.679217 30.000546 35.499853 " stroke="#000000" stroke-width="4" stroke-opacity="1" stroke-miterlimit="4"/><path stroke-linecap="round" transform="matrix(-2.924239, 0, 0, 2.922654, 409.595954, -40.706913)" fill="none" stroke-linejoin="round" d="M 87.499479 63.000543 C 84.770404 73.00055 86.750086 82.260114 91.999849 90.999762 C 96.879591 99.14064 101.713915 107.306912 106.500149 115.499915 C 108.709592 119.2703 108.33957 121.860519 105.499622 123.500456 C 102.010466 125.499923 99.500465 124.699334 97.49941 120.499919 C 95.499691 116.300504 95.069558 111.619933 91.999849 108.000577 " stroke="#000000" stroke-width="4" stroke-opacity="1" stroke-miterlimit="4"/><path stroke-linecap="round" transform="matrix(-2.924239, 0, 0, 2.922654, 409.595954, -40.706913)" fill="none" stroke-linejoin="round" d="M 92.499445 59.500139 C 92.659743 55.419676 90.009481 52.420476 87.809389 49.649824 C 86.360027 47.809406 82.989759 49.330391 80.53987 48.94012 C 78.480039 51.289761 80.310109 54.319702 78.890135 56.880517 L 71.810302 56.880517 L 71.21987 49.52018 C 60.430471 48.679495 63.600366 46.999461 58.999811 58.000539 " stroke="#000000" stroke-width="4" stroke-opacity="1" stroke-miterlimit="4"/><path stroke-linecap="round" transform="matrix(-2.924239, 0, 0, 2.922654, 409.595954, -40.706913)" fill="none" stroke-linejoin="round" d="M 65.000303 57.499336 C 63.770015 60.829998 64.670356 64.140613 64.920154 67.499343 C 65.629473 76.760243 62.860323 85.16041 58.000619 93.000566 C 53.350638 100.569404 48.930417 108.290607 44.490159 115.999782 C 42.399605 119.620474 43.239834 122.84956 46.489878 124.489497 C 48.649896 125.580115 52.029514 123.710293 53.489563 120.490563 C 54.949611 117.269497 56.610033 114.259604 57.350076 110.970374 C 57.840321 108.810522 59.129385 108.050029 60.51062 106.970103 " stroke="#000000" stroke-width="4" stroke-opacity="1" stroke-miterlimit="4"/><path stroke-linecap="round" transform="matrix(-2.924239, 0, 0, 2.922654, 409.595954, -40.706913)" fill="none" stroke-linejoin="round" d="M 75.49983 98.500436 C 76.999953 105.789937 72.639844 112.070348 71.999988 119.000319 C 71.690078 122.179952 70.99946 125.319489 70.550625 128.50046 C 69.92947 133.230482 67.900363 135.149756 64.0305 134.500197 C 60.419785 133.889397 59.75054 132.090412 59.940226 127.49939 C 60.239449 120.330178 62.339355 113.369467 61.309439 105.959678 C 60.720344 101.999504 63.000584 97.670444 63.999776 93.500433 " stroke="#000000" stroke-width="4" stroke-opacity="1" stroke-miterlimit="4"/><path stroke-linecap="round" transform="matrix(-2.924239, 0, 0, 2.922654, 409.595954, -40.706913)" fill="none" stroke-linejoin="round" d="M 32.499861 45.999728 C 30.35053 50.620154 25.770011 53.000535 22.319594 56.320506 C 20.44945 58.130183 19.240535 59.500139 20.600397 61.430106 C 22.179334 63.659458 24.069515 62.499339 26.050533 61.079932 C 29.880322 58.340021 33.259941 54.839617 37.979384 53.429565 C 38.620577 53.239776 38.979912 52.170542 39.499545 51.499598 " stroke="#000000" stroke-width="4" stroke-opacity="1" stroke-miterlimit="4"/><path stroke-linecap="round" transform="matrix(-2.924239, 0, 0, 2.922654, 409.595954, -40.706913)" fill="none" stroke-linejoin="round" d="M 36.500634 35.99972 C 30.629716 34.399879 25.720586 39.000257 20.000615 38.659439 C 19.826959 38.680823 19.65731 38.71691 19.491668 38.769035 C 19.324691 38.819824 19.164393 38.886651 19.010774 38.966843 C 18.855819 39.047036 18.710215 39.140594 18.572626 39.247517 C 18.435037 39.353104 18.308134 39.472056 18.191918 39.601701 C 18.075702 39.731345 17.971508 39.870346 17.880672 40.017365 C 17.789837 40.165722 17.712359 40.320761 17.64824 40.483819 C 17.585457 40.64554 17.537367 40.811271 17.503972 40.982349 C 17.470576 41.153426 17.451875 41.32584 17.450539 41.499591 C 17.450539 43.099431 18.960013 44.419935 19.450258 44.359791 C 24.809558 43.699539 30.139471 45.97968 35.449346 44.500128 " stroke="#000000" stroke-width="4" stroke-opacity="1" stroke-miterlimit="4"/><path stroke-linecap="round" transform="matrix(-2.924239, 0, 0, 2.922654, 409.595954, -40.706913)" fill="none" stroke-linejoin="round" d="M 87.499479 94.500166 C 91.079471 105.569407 88.849991 117.309593 91.500253 128.50046 C 92.340483 132.090412 89.879906 134.350504 86.999884 134.779534 C 84.630143 135.1404 82.089418 134.500197 81.290599 130.540023 C 80.290072 125.540019 79.520641 120.490563 78.6203 115.470511 C 78.159443 112.920389 77.619772 110.540007 76.030149 108.469704 " stroke="#000000" stroke-width="4" stroke-opacity="1" stroke-miterlimit="4"/><path stroke-linecap="round" transform="matrix(-2.924239, 0, 0, 2.922654, 409.595954, -40.706913)" fill="none" stroke-linejoin="round" d="M 99.750263 60.000006 C 98.25014 62.719869 99.600651 65.350184 100.029449 68.000547 C 100.062844 68.195682 100.08021 68.390817 100.081546 68.588625 C 100.082881 68.786433 100.068188 68.982905 100.037464 69.179377 C 100.00674 69.374512 99.959986 69.565637 99.898539 69.75409 C 99.837091 69.942542 99.760949 70.124312 99.670114 70.299399 C 99.579278 70.474486 99.475084 70.641554 99.357533 70.800602 C 99.238645 70.959651 99.10907 71.108007 98.967474 71.245671 C 98.824541 71.383335 98.673594 71.50897 98.510624 71.621239 C 98.34899 71.734845 98.178006 71.833749 98.000342 71.920624 C 97.459336 72.240058 96.119511 72.489991 95.57049 71.490258 C 92.779967 66.36061 86.649899 63.239784 86.56975 56.490246 " stroke="#000000" stroke-width="4" stroke-opacity="1" stroke-miterlimit="4"/><path stroke-linecap="round" transform="matrix(-2.924239, 0, 0, 2.922654, 409.595954, -40.706913)" fill="none" stroke-linejoin="round" d="M 111.500115 51.999465 C 116.740527 55.640206 122.670222 58.210376 127.579351 62.400435 C 127.847851 62.555474 128.135052 62.666407 128.438282 62.729225 C 128.742849 62.792042 129.048751 62.805408 129.357325 62.769321 C 129.664563 62.733234 129.959778 62.650369 130.2403 62.518051 C 130.522158 62.38707 130.774627 62.213319 131.00038 61.999473 C 131.107246 61.912598 131.206096 61.81503 131.295596 61.709443 C 131.385096 61.60252 131.463909 61.49025 131.533372 61.368625 C 131.602834 61.248336 131.660274 61.122701 131.705692 60.99172 C 131.752446 60.860739 131.785841 60.727085 131.807214 60.589421 C 131.828587 60.453094 131.837938 60.314093 131.833931 60.175093 C 131.829923 60.037429 131.813893 59.899765 131.784505 59.763438 C 131.756453 59.628447 131.715043 59.496129 131.662946 59.367821 C 131.609513 59.239513 131.545394 59.116552 131.470588 59.000272 C 126.740458 53.319969 121.600232 48.070031 115.010643 44.480079 C 114.879733 44.410579 114.679361 44.480079 114.509712 44.480079 " stroke="#000000" stroke-width="4" stroke-opacity="1" stroke-miterlimit="4"/><path stroke-linecap="round" transform="matrix(-2.924239, 0, 0, 2.922654, 409.595954, -40.706913)" fill="none" stroke-linejoin="round" d="M 116.50008 36.499587 C 116.769915 36.340538 117.050437 36.201538 117.340309 36.082586 C 117.630182 35.96497 117.928069 35.867402 118.232636 35.793893 C 118.537202 35.719046 118.845776 35.666921 119.158357 35.636181 C 119.469603 35.606777 119.782184 35.600094 120.096101 35.617469 C 120.408682 35.633508 120.718592 35.672267 121.027166 35.735085 C 121.334404 35.796566 121.634963 35.880768 121.930179 35.986355 C 122.225394 36.091941 122.511259 36.220249 122.787774 36.367269 C 123.064288 36.515625 123.32878 36.682693 123.579913 36.869809 C 125.309797 38.029927 127.810448 38.210361 130.01054 38.440246 C 132.210631 38.670131 134.009977 39.890394 133.860366 41.990102 C 133.709419 44.089809 131.62955 44.520176 129.500257 44.569628 C 125.82943 44.64982 122.030365 43.650087 118.499799 45.499861 " stroke="#000000" stroke-width="4" stroke-opacity="1" stroke-miterlimit="4"/><path stroke-linecap="round" transform="matrix(-2.924239, 0, 0, 2.922654, 409.595954, -40.706913)" fill="none" stroke-linejoin="round" d="M 57.499687 49.000265 C 50.43054 47.320231 46.599416 51.12002 43.999914 56.999469 " stroke="#000000" stroke-width="4" stroke-opacity="1" stroke-miterlimit="4"/><path stroke-linecap="round" transform="matrix(-2.924239, 0, 0, 2.922654, 409.595954, -40.706913)" fill="none" stroke-linejoin="round" d="M 106.999745 57.499336 C 106.603007 57.042238 106.269053 56.542372 106.000554 55.999735 C 103.999499 49.790161 99.500465 48.000531 93.479935 49.000265 " stroke="#000000" stroke-width="4" stroke-opacity="1" stroke-miterlimit="4"/><path stroke-linecap="round" transform="matrix(-2.924239, 0, 0, 2.922654, 409.595954, -40.706913)" fill="none" stroke-linejoin="round" d="M 37.499826 54.500135 C 38.620577 58.759695 35.780629 62.159858 35.000511 65.999743 C 34.599766 67.920354 32.999456 70.000014 35.529495 71.479566 C 38.059533 72.960454 39.069412 70.729766 40.52946 69.480099 C 44.320511 66.280417 46.9494 61.809684 51.529918 59.480091 " stroke="#000000" stroke-width="4" stroke-opacity="1" stroke-miterlimit="4"/><path stroke-linecap="round" transform="matrix(-2.924239, 0, 0, 2.922654, 409.595954, -40.706913)" fill="none" stroke-linejoin="round" d="M 113.499834 54.500135 C 112.329657 57.630317 114.500361 59.919813 115.499553 62.499339 C 116.285013 64.460047 116.951586 66.46085 117.500607 68.500413 C 117.57007 68.767722 117.60213 69.040376 117.596786 69.315704 C 117.591443 69.592368 117.548697 69.863686 117.468548 70.128322 C 117.388399 70.392957 117.273518 70.641554 117.123907 70.875449 C 116.974295 71.108007 116.796632 71.316507 116.58958 71.499614 C 116.486722 71.594508 116.375849 71.677374 116.256961 71.749547 C 116.136738 71.82172 116.011171 71.881865 115.880261 71.928644 C 115.749351 71.976759 115.614433 72.010173 115.476844 72.031557 C 115.339255 72.051606 115.20033 72.059625 115.061405 72.052942 C 114.921144 72.046259 114.783554 72.026211 114.648637 71.992798 C 114.513719 71.959384 114.382809 71.912605 114.255906 71.852461 C 114.13034 71.793653 114.011452 71.722816 113.899243 71.639951 C 113.787034 71.557085 113.684177 71.463527 113.589333 71.360613 C 108.749666 66.909928 104.389558 61.900569 98.999533 58.000539 C 97.779932 57.110402 98.000342 55.760494 98.000342 54.500135 " stroke="#000000" stroke-width="4" stroke-opacity="1" stroke-miterlimit="4"/><path stroke-linecap="round" transform="matrix(-2.924239, 0, 0, 2.922654, 409.595954, -40.706913)" fill="none" stroke-linejoin="round" d="M 53.500249 56.999469 C 51.240046 60.910191 53.500249 65.499876 51.610067 69.549599 C 51.119822 70.550669 52.829669 71.789643 54.010532 71.920624 C 54.368531 71.96874 54.72653 71.962057 55.081857 71.900576 C 55.438521 71.837759 55.777818 71.722816 56.098415 71.555748 C 56.419011 71.387344 56.706212 71.176171 56.961353 70.918218 C 57.215158 70.661602 57.424882 70.371572 57.590523 70.049466 C 59.180146 67.449891 60.450508 64.439999 63.50018 63.049995 " stroke="#000000" stroke-width="4" stroke-opacity="1" stroke-miterlimit="4"/><path stroke-linecap="round" transform="matrix(-2.924239, 0, 0, 2.922654, 409.595954, -40.706913)" fill="none" stroke-linejoin="round" d="M 75.49983 68.000547 C 71.320056 70.189803 69.880045 72.90031 71.500392 75.499884 C 71.61928 75.711058 71.755533 75.911539 71.909152 76.099992 C 72.062771 76.288444 72.231084 76.463531 72.414091 76.623916 C 72.597098 76.782964 72.792127 76.927311 72.999179 77.054283 C 73.206231 77.181254 73.422633 77.289514 73.648387 77.379062 C 73.87414 77.469947 74.105236 77.540784 74.343012 77.591572 C 74.580787 77.642361 74.821234 77.673102 75.064353 77.683794 C 75.306136 77.69315 75.547919 77.683794 75.789702 77.653053 C 76.030149 77.622313 76.267925 77.571524 76.500357 77.499351 C 78.729837 76.97008 80.570593 75.649577 80.499795 73.050003 C 80.390258 70.290043 79.209395 68.210384 76.0395 68.049999 " stroke="#000000" stroke-width="4" stroke-opacity="1" stroke-miterlimit="4"/></svg>