<?xml version="1.0" encoding="UTF-8"?>
<svg version="1.1" xmlns="http://www.w3.org/2000/svg" width="512" height="512">
<path d="M0 0 C1.59790277 -0.00270684 3.19580392 -0.00659904 4.79370117 -0.01159668 C8.11490831 -0.01743593 11.43568013 -0.00911202 14.75683594 0.00976562 C18.96563903 0.0325522 23.17342104 0.01939865 27.38218689 -0.00452423 C30.67353698 -0.01913518 33.96465397 -0.01430723 37.25601196 -0.00401306 C38.80579761 -0.00138773 40.35560604 -0.00446344 41.90536499 -0.01393127 C55.55430774 -0.07906369 68.9817507 1.71892953 81.1875 8.28125 C81.84613037 8.62341553 82.50476074 8.96558105 83.18334961 9.31811523 C88.94929372 12.41057172 93.97716091 16.1199052 98.8125 20.53125 C99.4209375 21.04816406 100.029375 21.56507813 100.65625 22.09765625 C114.75870477 34.88601865 122.45813059 54.948281 123.8125 73.53125 C123.94582575 78.78293024 123.92935483 84.03237738 123.91015625 89.28515625 C123.90828775 90.79686943 123.90686589 92.30858323 123.90586853 93.82029724 C123.90207732 97.77069819 123.89227661 101.72106152 123.88116455 105.67144775 C123.87087685 109.7139027 123.86635524 113.75636382 123.86132812 117.79882812 C123.8506508 125.70965255 123.83361591 133.62044658 123.8125 141.53125 C114.47951495 145.79563185 105.32080787 149.6429783 95.375 152.28125 C94.3015332 152.57217529 93.22806641 152.86310059 92.12207031 153.1628418 C83.40764195 155.47463314 74.75021094 157.35861569 65.8125 158.53125 C65.08901367 158.63276367 64.36552734 158.73427734 63.62011719 158.83886719 C18.60649309 164.93947379 -41.98325488 163.13337256 -83.1875 142.53125 C-83.28084738 132.89847765 -83.35158921 123.26586485 -83.39474869 113.63273621 C-83.41548002 109.15798786 -83.44352749 104.68355261 -83.48925781 100.20898438 C-83.5332389 95.87766516 -83.55674525 91.54664397 -83.56700897 87.21511841 C-83.5743079 85.57597166 -83.58855571 83.93683821 -83.61042023 82.29782104 C-83.8961367 59.95820711 -77.72563537 40.22980586 -62.3203125 23.65625 C-45.16173769 6.10456852 -23.80269074 -0.14541611 0 0 Z " fill="#000000" transform="translate(189.1875,330.46875)"/>
<path d="M0 0 C3.68789452 0.03113144 7.3758537 0.0444837 11.06384277 0.05950928 C18.25216653 0.09132728 25.4401764 0.14227457 32.6282959 0.20599365 C32.91398437 2.03541504 32.91398437 2.03541504 33.20544434 3.90179443 C33.46589505 5.52667842 33.72665361 7.15151308 33.9876709 8.77630615 C34.174021 9.97767212 34.174021 9.97767212 34.36413574 11.20330811 C36.93249779 27.04154074 44.47762216 40.73672923 55.6282959 52.20599365 C54.08103419 55.30051707 51.03876468 55.6534697 47.9407959 56.76849365 C35.50738961 61.51291792 25.0486844 68.78560515 15.6282959 78.20599365 C15.00567871 78.82861084 14.38306152 79.45122803 13.74157715 80.0927124 C-3.74970564 98.84179531 -9.13715225 122.45818689 -9.9342041 147.20599365 C-9.99897949 149.08351318 -9.99897949 149.08351318 -10.06506348 150.9989624 C-10.17048427 154.06787889 -10.27260753 157.13686754 -10.3717041 160.20599365 C-41.93501974 159.44543183 -72.19971525 151.96523341 -102.3717041 143.20599365 C-102.46498129 133.42558396 -102.53575876 123.6452826 -102.57895279 113.86451626 C-102.59969899 109.3213609 -102.62777488 104.7785131 -102.67346191 100.23553467 C-102.71738837 95.83938195 -102.74093829 91.44352231 -102.75121307 87.04716682 C-102.75852152 85.38207457 -102.77278913 83.71699569 -102.79462433 82.05203056 C-102.97013474 68.09553495 -101.24054979 55.36040303 -94.5592041 42.83099365 C-94.21301025 42.16382324 -93.86681641 41.49665283 -93.51013184 40.80926514 C-90.66350378 35.46411097 -87.45190712 30.6977193 -83.3717041 26.20599365 C-82.72975098 25.47251709 -82.08779785 24.73904053 -81.4263916 23.9833374 C-59.54733209 0.44921989 -29.96726265 -0.2803275 0 0 Z " fill="#000000" transform="translate(102.3717041015625,267.79400634765625)"/>
<path d="M0 0 C7.20732834 -0.04671314 14.41462308 -0.08206437 21.62207317 -0.10362434 C24.97021096 -0.11398153 28.31816543 -0.12910201 31.66625977 -0.15087891 C35.53143998 -0.17537399 39.39647457 -0.18653931 43.26171875 -0.1953125 C44.44142746 -0.20563507 45.62113617 -0.21595764 46.83659363 -0.22659302 C70.07773462 -0.22967217 91.0276136 6.64976853 108 23 C124.84816198 41.79978192 130.18652135 63.10311407 130.09765625 87.875 C130.09578836 89.41056268 130.09436621 90.94612596 130.09336853 92.48168945 C130.08957256 96.49950847 130.0797676 100.51729064 130.06866455 104.53509521 C130.05838726 108.64448549 130.05385744 112.75388179 130.04882812 116.86328125 C130.03814238 124.90887097 130.02110153 132.95443089 130 141 C128.08130345 141.96987971 126.16139096 142.93735418 124.2409668 143.90380859 C122.63743599 144.7123378 122.63743599 144.7123378 121.00151062 145.53720093 C100.15770383 155.69551955 73.19961244 160.10873858 50.19921875 160.01953125 C49.50550171 160.01812134 48.81178467 160.01671143 48.0970459 160.01525879 C46.39802692 160.01160184 44.69901233 160.00599793 43 160 C42.9906543 159.18547363 42.98130859 158.37094727 42.97167969 157.53173828 C42.56178235 129.04387302 40.04752231 100.46381901 18.4375 79.3125 C17.2309375 78.1678125 17.2309375 78.1678125 16 77 C16 76.34 16 75.68 16 75 C15.42636719 74.74347656 14.85273438 74.48695313 14.26171875 74.22265625 C11.77781958 72.8798921 9.93557214 71.29753666 7.8125 69.4375 C-0.98790178 62.26098188 -11.55765292 57.33843254 -22 53 C-20.55163142 49.75214319 -18.71363433 47.41473872 -16.375 44.75 C-6.91638135 33.05163559 -1.93304649 19.70764467 -0.47045898 4.79638672 C-0.33763771 3.44829422 -0.33763771 3.44829422 -0.20213318 2.07296753 C-0.13542923 1.38888824 -0.06872528 0.70480896 0 0 Z " fill="#000000" transform="translate(283,268)"/>
<path d="M0 0 C7.39743038 -0.05125482 14.79481397 -0.08596315 22.19238281 -0.10986328 C24.70216584 -0.11984062 27.2119375 -0.13342727 29.72167969 -0.15087891 C58.36169197 -0.34485509 82.43694142 1.31072168 105 21 C105.61488281 21.51949219 106.22976563 22.03898437 106.86328125 22.57421875 C119.35831864 33.97773563 128.47383089 53.18556127 129.26397705 70.00991821 C129.38247142 74.60589256 129.33835369 79.20014092 129.29296875 83.796875 C129.28736044 85.48365905 129.28309619 87.17044805 129.28010559 88.85723877 C129.26875389 93.25653015 129.23937235 97.65551548 129.20599365 102.0546875 C129.17508185 106.55985374 129.16155554 111.06507035 129.14648438 115.5703125 C129.11449144 124.38034741 129.06341515 133.19013544 129 142 C126.44584714 143.13056757 123.89043921 144.25813561 121.33422852 145.3840332 C120.61591103 145.70235359 119.89759354 146.02067398 119.15750885 146.34864044 C113.84440185 148.68488881 108.54370494 150.66375333 102.9375 152.1875 C102.06375732 152.42887695 101.19001465 152.67025391 100.28979492 152.91894531 C81.4452826 157.94325658 62.42237651 159.84605612 43 161 C42.98541748 160.23558594 42.97083496 159.47117187 42.95581055 158.68359375 C42.27015971 126.47011851 37.29897425 99.5488977 14.6875 75.25 C3.90384103 65.07103218 -9.49683651 58.70893241 -23 53 C-22.0843974 51.77004051 -21.16745797 50.54107614 -20.25 49.3125 C-19.48429687 48.28576172 -19.48429687 48.28576172 -18.703125 47.23828125 C-17.52543413 45.69053614 -16.30302799 44.17617908 -15.046875 42.69140625 C-6.73439447 31.76144616 -1.90541328 17.83307961 -0.45678711 4.27514648 C-0.37021347 3.47229721 -0.28363983 2.66944794 -0.19444275 1.8422699 C-0.13027664 1.23432083 -0.06611053 0.62637177 0 0 Z " fill="#000000" transform="translate(383,207)"/>
<path d="M0 0 C2.50879701 2.19141908 4.87628052 4.46073564 7.21875 6.828125 C7.84265625 7.41851562 8.4665625 8.00890625 9.109375 8.6171875 C21.20053687 20.98067284 25.75011289 38.47261695 25.63891602 55.25708008 C25.1103941 73.20149676 17.93137073 88.24932133 5.21875 100.828125 C4.62835938 101.45203125 4.03796875 102.0759375 3.4296875 102.71875 C-8.79318236 114.67239365 -26.33139819 119.35915289 -42.97460938 119.25048828 C-61.77302234 118.64164891 -78.19448258 110.13699234 -90.96875 96.578125 C-103.48102348 81.81617002 -108.35462187 63.95724019 -106.78125 44.828125 C-104.22198251 26.85915422 -95.40537992 11.84062005 -81.73828125 0 C-57.68753081 -17.66475197 -23.86576988 -18.63675288 0 0 Z " fill="#000000" transform="translate(246.78125,34.171875)"/>
<path d="M0 0 C11.84624896 9.99884357 19.52364656 24.08049094 21.8125 39.375 C23.31732015 57.19730473 19.03278263 74.72766765 7.5625 88.8125 C-4.63963806 101.31899978 -19.61472771 108.14028692 -36.91015625 109.33984375 C-54.06129001 109.52382492 -69.41384133 103.40978837 -81.83203125 91.76171875 C-93.66360132 79.77317926 -99.87332422 65.13965592 -100.4375 48.3125 C-100.24587896 30.8749856 -93.61970885 16.24491552 -81.875 3.625 C-59.25112063 -17.72213675 -24.46508431 -18.1881075 0 0 Z " fill="#000000" transform="translate(248.1875,218.625)"/>
<path d="M0 0 C11.74315214 10.06555898 19.87258325 24.27664165 21.99609375 39.7109375 C22.18429688 40.62359375 22.3725 41.53625 22.56640625 42.4765625 C23.06118547 46.49795957 23.3217172 49.88127471 20.84033203 53.30615234 C18.74388058 55.60100173 16.49732383 57.69172031 14.20092773 59.78417969 C4.20683977 68.90597247 -3.17826277 82.06283651 -4.56640625 95.6484375 C-5.17729335 98.75996528 -5.78369936 99.54532736 -8.3671875 101.48828125 C-23.43669613 109.48235262 -40.50187772 111.14312739 -56.9453125 106.75 C-72.24269401 101.5531884 -85.43531453 91.52767598 -92.9140625 77.0234375 C-101.11375382 59.62480932 -102.09700407 42.97124935 -96.00390625 24.7109375 C-89.3806966 8.88770716 -77.3390887 -2.38301484 -61.81640625 -9.2265625 C-40.62327032 -17.26056174 -17.97911208 -13.70059776 0 0 Z " fill="#000000" transform="translate(142.00390625,156.2890625)"/>
<path d="M0 0 C12.26168104 11.27235225 19.07447775 26.26797283 20.6328125 42.6875 C21.19273641 59.11193466 16.12496444 75.34677493 5.0625 87.625 C-2.98369744 96.13304317 -11.66615362 101.44217809 -22.6875 105.3125 C-23.39003906 105.56 -24.09257812 105.8075 -24.81640625 106.0625 C-36.41590928 109.3312445 -50.44988134 108.17045412 -61.6875 104.3125 C-62.57050781 104.12945312 -63.45351563 103.94640625 -64.36328125 103.7578125 C-67.10550038 102.05256699 -67.19850258 101.46429167 -68.0234375 98.453125 C-68.38500843 96.82622399 -68.73044006 95.19567991 -69.0625 93.5625 C-72.99413644 76.72034844 -81.91008395 59.68229363 -96.81640625 49.91796875 C-97.45449219 49.53253906 -98.09257812 49.14710938 -98.75 48.75 C-101.6875 46.3125 -101.6875 46.3125 -102.375 42.9375 C-100.72836544 25.85770232 -92.89186282 9.83598853 -79.67578125 -1.203125 C-55.28612816 -19.52890804 -23.91710978 -18.63885107 0 0 Z " fill="#000000" transform="translate(449.6875,96.6875)"/>
<path d="M0 0 C11.01139158 9.74191655 17.94367063 22.69866394 20.23339844 37.24267578 C21.3574888 55.63353128 18.36364185 72.06297972 5.98339844 86.43017578 C-6.10631352 99.16682885 -20.24727083 107.04012283 -38.05981445 107.59570312 C-45.92326422 107.67399834 -53.31141809 106.95061238 -60.76660156 104.24267578 C-61.81589844 103.89462891 -62.86519531 103.54658203 -63.94628906 103.18798828 C-68.08942229 100.33025927 -68.27241871 97.19448421 -69.20410156 92.43017578 C-73.91372848 72.12926562 -84.6663795 57.79204042 -101.76660156 46.24267578 C-100.14398377 27.37671668 -94.49395416 13.02948157 -80.63769531 -0.36279297 C-57.17506524 -19.93094567 -23.37153947 -19.52458118 0 0 Z " fill="#000000" transform="translate(349.7666015625,157.75732421875)"/>
<path d="M0 0 C0.77137802 -0.00175232 1.54275604 -0.00350464 2.33750916 -0.00531006 C4.87875644 -0.00969892 7.41993369 -0.00680073 9.96118164 -0.00341797 C11.73328159 -0.00409193 13.50538145 -0.00506272 15.27748108 -0.00631714 C18.98870729 -0.00779015 22.69990941 -0.00565253 26.41113281 -0.00097656 C31.16010682 0.00471631 35.90902425 0.001442 40.65799618 -0.00454903 C44.31690392 -0.00816887 47.97579834 -0.00700943 51.6347065 -0.00442123 C53.38534108 -0.00375569 55.13597688 -0.00456734 56.88661003 -0.00690079 C59.33719953 -0.00945021 61.78769847 -0.00555431 64.23828125 0 C64.95691345 -0.00202423 65.67554565 -0.00404846 66.41595459 -0.00613403 C70.44145622 0.01070366 74.23381127 0.35322344 78.18383789 1.12939453 C76.65194523 5.19157757 74.75043609 8.96816401 72.74633789 12.81689453 C68.0688712 22.02637085 65.82516923 30.97244998 64.18383789 41.12939453 C63.57797852 40.93603516 62.97211914 40.74267578 62.34790039 40.54345703 C59.63632956 39.70078425 56.91535036 38.90496248 54.18383789 38.12939453 C53.43875977 37.91669922 52.69368164 37.70400391 51.92602539 37.48486328 C35.62841758 33.53823003 18.74081626 36.00593858 3.82055664 43.39501953 C2.18383789 44.12939453 2.18383789 44.12939453 0.18383789 44.12939453 C0.0252832 42.90865234 -0.13327148 41.68791016 -0.29663086 40.43017578 C-2.04200213 27.81029321 -4.36725927 16.32815606 -11.89819336 5.71533203 C-12.81616211 4.12939453 -12.81616211 4.12939453 -12.81616211 1.12939453 C-8.53466432 0.08234787 -4.38093571 -0.01230548 0 0 Z " fill="#000000" transform="translate(173.816162109375,156.87060546875)"/>
</svg>
