<svg version="1.2" xmlns="http://www.w3.org/2000/svg" viewBox="0 0 1080 1080" width="1080" height="1080">
	<title>logo cubo elote-ai</title>
	<style>
		.s0 { fill: #ad4b32 } 
		.s1 { fill: #000000 } 
		.s2 { fill: #9a002b } 
		.s3 { fill: #ffffff } 
	</style>
	<g id="Layer 1">
		<g id="&lt;Group&gt;">
			<g id="&lt;Group&gt;">
				<path id="&lt;Path&gt;" class="s0" d=""/>
			</g>
			<g id="&lt;Group&gt;">
				<g id="&lt;Group&gt;">
					<path id="&lt;Path&gt;" class="s1" d="m944.8 504.3q0 0-0.1 0c-8.4 0-16.3-3.3-22.2-9.3l-154.1-154.6-42.8-42.5-145.4-145.6c-12.3-12.2-12.3-32.3 0-44.6l37.7-37.8c5.9-5.9 13.8-9.2 22.3-9.2q0 0 0 0c8.4 0 16.3 3.3 22.2 9.2l64.8 64.9c12.3 12.3 12.3 32.3 0 44.6l-10.7 10.8c-6 5.9-13.9 9.2-22.3 9.2-8.4 0-16.3-3.3-22.3-9.2l-42.5-42.7c-4.8-4.7-4.8-12.5 0-17.2 4.8-4.8 12.5-4.8 17.3 0l42.5 42.7c1.3 1.3 3.1 2 5 2 1.9 0 3.7-0.7 5-2l10.7-10.8c2.8-2.8 2.8-7.3 0-10.1l-64.7-65c-1.4-1.3-3.1-2-5-2-1.9 0-3.7 0.7-5.1 2l-37.7 37.9c-2.8 2.8-2.8 7.3 0 10.1l145.4 145.5 42.8 42.5 154.1 154.7c1.4 1.4 3.1 2.1 5.1 2.1 1.9 0 3.6-0.7 5-2l37.8-37.8c2.8-2.8 2.8-7.4 0-10.2l-64.7-65c-1.4-1.3-3.1-2.1-5-2.1q0 0 0 0c-1.9 0-3.7 0.8-5.1 2.1l-10.7 10.7c-2.8 2.8-2.8 7.4 0 10.2l42.5 42.7c4.7 4.8 4.7 12.5 0 17.2-4.8 4.8-12.5 4.7-17.3 0l-42.5-42.7c-12.2-12.3-12.2-32.3 0.1-44.6l10.7-10.7c6-6 13.9-9.2 22.3-9.2q0 0 0 0c8.4 0 16.3 3.3 22.3 9.2l64.7 65c12.2 12.3 12.2 32.3-0.1 44.6l-37.8 37.8c-5.9 5.9-13.8 9.2-22.2 9.2z"/>
				</g>
				<g id="&lt;Group&gt;">
					<path id="&lt;Path&gt;" class="s1" d="m436.6 1019.3c-8.4 0-16.4-3.3-22.3-9.2l-64.8-64.9c-12.2-12.3-12.2-32.3 0-44.6l10.7-10.8c6-5.9 13.9-9.2 22.3-9.2q0 0 0 0c8.5 0 16.4 3.3 22.3 9.2l42.5 42.7c4.8 4.7 4.8 12.5 0 17.2-4.7 4.8-12.5 4.8-17.2 0l-42.5-42.7c-1.4-1.3-3.2-2-5.1-2-1.9 0-3.6 0.7-5 2l-10.7 10.8c-2.8 2.8-2.8 7.3 0 10.1l64.8 65c1.3 1.3 3.1 2 5 2 1.9 0 3.6-0.7 5-2l37.7-37.9c2.8-2.8 2.8-7.3 0-10.1l-145.3-145.5-42.9-42.5-154.1-154.7c-1.3-1.4-3.1-2.1-5-2.1q0 0 0 0c-1.9 0-3.7 0.7-5 2l-37.8 37.8c-2.8 2.8-2.8 7.4 0 10.2l64.7 65c1.3 1.3 3.1 2.1 5 2.1q0 0 0 0c1.9 0 3.6-0.8 5-2.1l10.7-10.7c2.8-2.8 2.8-7.4 0-10.2l-42.5-42.7c-4.7-4.8-4.7-12.5 0.1-17.2 4.8-4.8 12.5-4.8 17.2 0l42.5 42.7c12.3 12.3 12.2 32.3 0 44.6l-10.8 10.7c-5.9 6-13.8 9.2-22.2 9.2q0 0-0.1 0c-8.4 0-16.3-3.3-22.2-9.2l-64.7-65c-12.3-12.3-12.2-32.3 0-44.6l37.8-37.8c6-5.9 13.9-9.2 22.3-9.2q0 0 0 0c8.4 0 16.3 3.3 22.3 9.3l154 154.6 42.9 42.5 145.4 145.5c12.2 12.3 12.2 32.4 0 44.7l-37.7 37.8c-6 5.9-13.9 9.2-22.3 9.2z"/>
				</g>
				<g id="&lt;Group&gt;">
					<path id="&lt;Path&gt;" class="s1" d="m643.3 1019.2c-8.1 0-16.2-3.1-22.4-9.3l-37.7-37.7c-6-6-9.3-13.9-9.3-22.3 0-8.4 3.3-16.4 9.3-22.3l154.7-154 42.5-42.9 145.5-145.4c12.3-12.3 32.3-12.3 44.6 0l37.8 37.7c6 6 9.3 13.9 9.3 22.3 0 8.4-3.3 16.3-9.3 22.3l-64.9 64.7c-12.3 12.3-32.3 12.3-44.6 0l-10.7-10.7c-6-5.9-9.3-13.8-9.3-22.3 0-8.4 3.3-16.3 9.3-22.2l42.6-42.6c4.8-4.7 12.5-4.7 17.3 0.1 4.7 4.7 4.7 12.4-0.1 17.2l-42.6 42.5c-1.3 1.4-2.1 3.2-2.1 5 0 1.9 0.8 3.7 2.1 5.1l10.7 10.7c2.8 2.8 7.4 2.8 10.2 0l64.9-64.8c1.4-1.3 2.1-3.1 2.1-5 0-1.9-0.7-3.7-2.1-5l-37.8-37.7c-2.8-2.8-7.4-2.8-10.2 0l-145.5 145.3-42.5 42.9-154.7 154.1c-1.3 1.3-2.1 3.1-2.1 5 0 1.9 0.8 3.7 2.1 5l37.8 37.8c2.8 2.8 7.3 2.8 10.1 0l65-64.7c1.4-1.3 2.1-3.1 2.1-5 0-1.9-0.7-3.7-2.1-5l-10.7-10.7c-2.8-2.8-7.3-2.8-10.1 0l-42.7 42.4c-4.8 4.8-12.5 4.8-17.3 0-4.7-4.8-4.7-12.5 0.1-17.2l42.7-42.5c12.3-12.3 32.3-12.3 44.5 0l10.8 10.7c5.9 6 9.2 13.9 9.2 22.3 0 8.5-3.3 16.4-9.3 22.3l-65 64.7c-6.1 6.1-14.2 9.2-22.2 9.2z"/>
				</g>
				<g id="&lt;Group&gt;">
					<path id="&lt;Path&gt;" class="s1" d="m131.8 507.7c-8.1 0-16.2-3.1-22.3-9.2l-37.8-37.8c-6-5.9-9.3-13.8-9.3-22.2 0-8.5 3.3-16.4 9.3-22.3l64.9-64.8c12.3-12.2 32.3-12.2 44.6 0l10.7 10.7c6 6 9.3 13.9 9.3 22.3 0 8.4-3.3 16.3-9.3 22.3l-42.6 42.5c-4.8 4.8-12.5 4.8-17.3 0-4.7-4.8-4.7-12.5 0.1-17.2l42.6-42.6c1.3-1.3 2.1-3.1 2.1-5 0-1.9-0.8-3.7-2.1-5l-10.7-10.7c-2.8-2.8-7.4-2.8-10.2 0l-64.9 64.7c-1.4 1.4-2.1 3.2-2.1 5.1 0 1.8 0.7 3.6 2.1 5l37.8 37.7c2.8 2.8 7.4 2.8 10.2 0l145.5-145.4 42.5-42.8 154.7-154.1c1.3-1.4 2.1-3.2 2.1-5 0-1.9-0.8-3.7-2.1-5.1l-37.8-37.7c-2.8-2.8-7.3-2.8-10.1-0.1l-65 64.7c-1.4 1.4-2.1 3.2-2.1 5 0 1.9 0.7 3.7 2.1 5.1l10.7 10.7c2.8 2.8 7.3 2.8 10.1 0l42.7-42.5c4.8-4.7 12.5-4.7 17.3 0.1 4.7 4.7 4.7 12.5-0.1 17.2l-42.7 42.5c-12.3 12.2-32.3 12.2-44.5-0.1l-10.8-10.7c-5.9-5.9-9.2-13.9-9.2-22.3 0-8.4 3.3-16.3 9.3-22.3l65-64.6c12.3-12.3 32.3-12.3 44.6 0l37.7 37.8c6 5.9 9.3 13.9 9.3 22.3 0 8.4-3.3 16.3-9.3 22.3l-154.7 154-42.5 42.8-145.5 145.4c-6.1 6.2-14.2 9.3-22.3 9.3z"/>
				</g>
			</g>
			<g id="&lt;Group&gt;">
				<g id="&lt;Group&gt;">
					<path id="&lt;Compound Path&gt;" fill-rule="evenodd" class="s2" d="m915 560.7l-354.3 354.3c-11.4 11.4-30 11.4-41.4 0l-354.3-354.3c-11.4-11.4-11.4-30 0-41.4l354.3-354.3c11.4-11.4 30-11.4 41.4 0l354.3 354.3c11.4 11.4 11.4 30 0 41.4zm-204.4-106.5l-53.6 53.7c-4.1 4-4.1 10.6 0 14.6l21.1 21.2 103.1-24.8c1.4-3.7 0.7-8-2.3-11l-53.7-53.7c-4-4-10.6-4-14.6 0zm-88.9-88.6l-53.7 53.7c-4 4-4 10.6 0 14.6l53.7 53.6c4 4.1 10.5 4.1 14.6 0l53.6-53.6c4.1-4 4.1-10.6 0-14.6l-53.6-53.7c-4.1-4-10.6-4-14.6 0zm-142.6 157l53.7 53.6c4 4.1 10.6 4.1 14.6 0l53.7-53.6c4-4.1 4-10.6 0-14.6l-53.7-53.7c-4-4-10.6-4-14.6 0l-53.7 53.7c-4 4-4 10.5 0 14.6zm-20.7 20.6c-4-4-10.5-4-14.6 0l-9.5 9.5 44 11.1zm143.8 18.7l42.6-10.2-8.6-8.6c-4-4-10.6-4-14.6 0zm-123.2-216.8l53.7 53.6c4 4.1 10.6 4.1 14.6 0l53.6-53.6c4.1-4 4.1-10.6 0-14.6l-53.6-53.7c-4-4-10.6-4-14.6 0l-53.7 53.7c-4 4-4 10.6 0 14.6zm-88.8 88.8l53.7 53.6c4 4.1 10.6 4.1 14.6 0l53.7-53.6c4-4.1 4-10.6 0-14.6l-53.7-53.7c-4-4-10.6-4-14.6 0l-53.7 53.7c-4 4-4 10.5 0 14.6zm-91.4 84.8l102.6 25.9 21.8-21.8c4-4.1 4-10.6 0-14.7l-53.7-53.6c-4-4.1-10.5-4.1-14.6 0l-53.6 53.6c-2.9 2.9-3.7 7-2.5 10.6zm490.3 24.5l-40.8 9.8-49.2 11.8-33.3 8-82.6 19.8c-2 0.4-3.7 1.7-4.5 3.6l-8.1 17.9-1.3 2.8-11.6 25.8-13.4 29.8c-2.3 4.9-9.3 4.9-11.6-0.1l-13.4-27.2-13.6-27.4-10.7-21.6c-0.8-1.9-2.5-3.2-4.6-3.6l-77-19.1-32.9-8.1-48.6-12-41.3-10.2c-6.2-1.3-10.2 6.3-5.7 10.7l250.5 250.6c2.5 2.5 6.5 2.5 9 0l250.5-250.5c4.4-4.5 0.4-12-5.8-10.8z"/>
					<path id="Shape 1" class="s3" d="m555.2 185.2l339.2 364.4-370.1 344.5-339.2-364.4z"/>
					<path id="&lt;Compound Path&gt;" fill-rule="evenodd" class="s1" d="m915 560.7l-354.3 354.3c-11.4 11.4-30 11.4-41.4 0l-354.3-354.3c-11.4-11.4-11.4-30 0-41.4l354.3-354.3c11.4-11.4 30-11.4 41.4 0l354.3 354.3c11.4 11.4 11.4 30 0 41.4zm-204.4-106.5l-53.6 53.7c-4.1 4-4.1 10.6 0 14.6l21.1 21.2 103.1-24.8c1.4-3.7 0.7-8-2.3-11l-53.7-53.7c-4-4-10.6-4-14.6 0zm-88.9-88.6l-53.7 53.7c-4 4-4 10.6 0 14.6l53.7 53.6c4 4.1 10.5 4.1 14.6 0l53.6-53.6c4.1-4 4.1-10.6 0-14.6l-53.6-53.7c-4.1-4-10.6-4-14.6 0zm-142.6 157l53.7 53.6c4 4.1 10.6 4.1 14.6 0l53.7-53.6c4-4.1 4-10.6 0-14.6l-53.7-53.7c-4-4-10.6-4-14.6 0l-53.7 53.7c-4 4-4 10.5 0 14.6zm-20.7 20.6c-4-4-10.5-4-14.6 0l-9.5 9.5 44 11.1zm143.8 18.7l42.6-10.2-8.6-8.6c-4-4-10.6-4-14.6 0zm-123.2-216.8l53.7 53.6c4 4.1 10.6 4.1 14.6 0l53.6-53.6c4.1-4 4.1-10.6 0-14.6l-53.6-53.7c-4-4-10.6-4-14.6 0l-53.7 53.7c-4 4-4 10.6 0 14.6zm-88.8 88.8l53.7 53.6c4 4.1 10.6 4.1 14.6 0l53.7-53.6c4-4.1 4-10.6 0-14.6l-53.7-53.7c-4-4-10.6-4-14.6 0l-53.7 53.7c-4 4-4 10.5 0 14.6zm-91.4 84.8l102.6 25.9 21.8-21.8c4-4.1 4-10.6 0-14.7l-53.7-53.6c-4-4.1-10.5-4.1-14.6 0l-53.6 53.6c-2.9 2.9-3.7 7-2.5 10.6zm490.3 24.5l-40.8 9.8-49.2 11.8-33.3 8-82.6 19.8c-2 0.4-3.7 1.7-4.5 3.6l-8.1 17.9-1.3 2.8-11.6 25.8-13.4 29.8c-2.3 4.9-9.3 4.9-11.6-0.1l-13.4-27.2-13.6-27.4-10.7-21.6c-0.8-1.9-2.5-3.2-4.6-3.6l-77-19.1-32.9-8.1-48.6-12-41.3-10.2c-6.2-1.3-10.2 6.3-5.7 10.7l250.5 250.6c2.5 2.5 6.5 2.5 9 0l250.5-250.5c4.4-4.5 0.4-12-5.8-10.8z"/>
				</g>
			</g>
		</g>
	</g>
</svg>